<svg xmlns="http://www.w3.org/2000/svg" viewBox="0 0 806.53 832.32">
  <defs>
    <style>
      .cls-1 {
        fill: none;
      }

      .cls-2 {
        fill: #b0d8f3;
      }

      .cls-3 {
        fill: #f4d3ab;
      }

      .cls-4 {
        fill: #6391c3;
      }

      .cls-5 {
        fill: #78a6d1;
      }

      .cls-6 {
        fill: #fff;
      }

      .cls-7 {
        opacity: 0.3;
      }

      .cls-8 {
        fill: #eef3f9;
      }

      .cls-9 {
        opacity: 0.9;
      }

      .cls-10 {
        fill: #f1f2f8;
      }

      .cls-11 {
        fill: #eef0f7;
      }

      .cls-12 {
        fill: #eff1f9;
      }

      .cls-13 {
        fill: #c3d0e5;
      }

      .cls-14 {
        fill: #cbd6e9;
      }

      .cls-15 {
        fill: #c6d3e7;
      }

      .cls-16 {
        fill: #ced7e9;
      }

      .cls-17 {
        fill: #dbe2ef;
      }

      .cls-18 {
        fill: #d6deed;
      }

      .cls-19 {
        fill: #dfe4f0;
      }

      .cls-20 {
        fill: #e7ebf5;
      }

      .cls-21 {
        fill: #4f5158;
      }

      .cls-22 {
        fill: #505158;
      }

      .cls-23 {
        fill: #dabd9e;
      }

      .cls-24 {
        fill: #346491;
      }
    </style>
  </defs>
  <title>dataWorld</title>
  <g id="Layer_1" data-name="Layer 1">
    <rect class="cls-1" x="8.6" width="795.62" height="832.32"/>
  </g>
  <g id="dataWorld">
    <circle class="cls-2" cx="403.27" cy="416.67" r="403.27"/>
    <g id="_Group_" data-name=" Group ">
      <path id="_Path_" data-name=" Path " class="cls-3" d="M507.43,778.64a22.62,22.62,0,0,0-8.64-5.34V698H488.15v70.32a26.44,26.44,0,0,0-31.17,5.6c-10.37,10.5-1.54,41.28-1.4,36.2,0-3,4.68-6.84,10.67-11.09.29,10.67,3.53,20.55,3.63,17.51C470.14,807.15,517,788.13,507.43,778.64Z" transform="translate(-105.61 -95.09)"/>
      <path class="cls-4" d="M509.23,777.26c-2.22-2-7.49-3.92-8.05-5.14a23.26,23.26,0,0,1,0-7.26V698c0-1.25-1.15-1.67-2.23-1.67H488.31c-1,0-2.58.85-2.58,2v70.32l3.76-1.83c-13.35-6.55-33.82-1.6-38.56,13.85a47.91,47.91,0,0,0-.53,21.21c.4,2.49.72,9.56,3.7,10.61a3.05,3.05,0,0,0,3.64-1.34,32.78,32.78,0,0,1,10.11-10.81l-4-1c.19,3.54,0,18.17,4.58,19.64a2.88,2.88,0,0,0,3.71-1.68l.06-.15c2-10.41,48.19-27.11,37.42-39.48-1.51-1.71-6,.23-4.33,2.13,5.37,6.15-16.72,18.2-20.62,20.82-6.06,4.06-15.81,8.93-17.29,16.82l3.77-1.83c-1.61-.46-2.42-16-2.46-16.37,0-2.06-2.71-1.93-4-1a36,36,0,0,0-11.49,12.47l3.63-1.34a49.57,49.57,0,0,0-1.41-7,57.16,57.16,0,0,1-.91-14.77c1.31-16.07,18-24.12,32.31-17.18,1.18.59,3.77-.27,3.77-1.84V698L488,700h10.64l-2.23-1.67v75.3a1.55,1.55,0,0,0,1.05,1.51,27.48,27.48,0,0,1,8.18,5.07c1.64,1.34,5.7-1.11,3.57-3Z" transform="translate(-105.61 -95.09)"/>
      <path id="_Path_2" data-name=" Path 2" class="cls-3" d="M513.06,780.31a22.65,22.65,0,0,1,8.65-5.34V699.68h10.64V770a26.44,26.44,0,0,1,31.16,5.59c10.38,10.51,1.54,41.29,1.41,36.21,0-3-4.68-6.84-10.67-11.1-.3,10.68-3.54,20.56-3.64,17.52C550.32,808.79,503.41,789.8,513.06,780.31Z" transform="translate(-105.61 -95.09)"/>
      <path class="cls-4" d="M514.93,780.54a20,20,0,0,1,7.69-4.78c.63-.26,1.48-.66,1.48-1.44V699l-3.28,1.8c2.23,0,8.71-1.21,10.35,0-1.9-1.41-1.12,2.36-1.12,3.54v66.36c0,1.27,3.28,0,3.8,0a22.68,22.68,0,0,1,32.28,19.08,58.17,58.17,0,0,1-1,15c-.32,1.81-2.42,7.47-.95,6.94h3.28a34.5,34.5,0,0,0-11-11.88c-.88-.62-4.49-.2-4.55,1.21a74.91,74.91,0,0,1-1.44,11.85c-.52,2.46-2.65,5.67,0,4.85l2.62.36c-1.87-9.82-45.54-29.17-37.88-38,1.18-1.37-3.47-1-4.35,0-9.83,11.23,35.45,28.52,37.48,39.29.16.88,2.19.49,2.62.36,6-1.8,5.37-14.77,5.6-19.38l-4.55,1.21A33.35,33.35,0,0,1,562.76,813c.59,1,2.46.46,3.27,0,3.28-1.14,3.28-6.55,3.9-9.23a47.89,47.89,0,0,0-.23-22.3c-5-15.84-25.6-18.52-38.66-12.17h3.79v-70.1c0-.52-1.11-.55-1.4-.55H522.79c-1,0-3.28.49-3.28,1.8v75.3l1.48-1.44a31.4,31.4,0,0,0-9.63,5.86c-2.13,1.63,2.56,1.3,3.57.39Z" transform="translate(-105.61 -95.09)"/>
    </g>
    <path class="cls-5" d="M755.82,471.26a37.65,37.65,0,0,0-39.29-21.34A33.58,33.58,0,0,0,705.27,454q-.56-68.91-4.09-132.88a60.77,60.77,0,0,0-17.91-43.06,61.53,61.53,0,0,0-6-5.27c-.4-1.14-.82-2.29-1.25-3.47-6.78-18-.62-33.95-7-41.48-8.84,0-38.27,4.72-53.16,12a89.2,89.2,0,0,0-21.84,15c-16.37-1.51-33.79-2.62-51.89-3.28a234,234,0,0,1-89.51-43.44l45.18,39.52a241.79,241.79,0,0,1-23.08-8.25,239.42,239.42,0,0,1-55.23-32.28l51.24,44.78q-18.93.79-36.67,2.26a89.94,89.94,0,0,0-24.22-17.29c-14.93-7.23-44.36-11.78-53.17-11.94-6.55,7.53-.26,23.44-7,41.47l-.85,2.36a61.6,61.6,0,0,0-12,9.33,62.4,62.4,0,0,0-17.91,43c-3.54,41.42-5.89,85.74-6.55,132.76a33.76,33.76,0,0,0-10.87-4,37.65,37.65,0,0,0-39.28,21.35,203.89,203.89,0,0,0,21,178.36,449.21,449.21,0,0,0,31.37-76.28v-.53q1.64,32,4.22,61.94a60.75,60.75,0,0,0,18,43,62.38,62.38,0,0,0,43.05,17.91,1273.83,1273.83,0,0,0,138.51,6.55c43.91-.3,84.7-2.82,121.92-6.55a60.77,60.77,0,0,0,43-17.91,62.38,62.38,0,0,0,17.91-43q1.6-29.46,2.62-60.3a449,449,0,0,0,31,75.29,203.85,203.85,0,0,0,21-178.39Z" transform="translate(-105.61 -95.09)"/>
    <path class="cls-4" d="M760.79,474.83c-10.8-20.43-38.63-36-60.5-24.42l9.82,7.13q-.48-56-3-112c-.75-16.37,0-33.06-7.43-48a61,61,0,0,0-12.51-16.93c-6.55-6.25-8.58-13.09-9.49-22.2-1-10.54,2.13-22.91-7.47-29.75a20.17,20.17,0,0,0-7.36-4.46c-4.68-.82-11.17,1.15-15.75,1.93a133.48,133.48,0,0,0-37.65,10.64,87.52,87.52,0,0,0-17.51,11.63c-3.7,3.27-5.4,2.48-10.41,2.09s-9.83-.78-15-1.11c-10-.66-20.95,0-30.8-1.8a154.91,154.91,0,0,1-26.19-8.25,204.77,204.77,0,0,1-52.38-28c-3.28-2.42-6.81-4.42-9.82-7l37.48,32.74a35.49,35.49,0,0,1,7,6.09c0,.19,1,.65,1,.88,0-.29-13.39-4.45-14.21-4.75a206.08,206.08,0,0,1-54.34-28.74c-3.28-2.42-6.81-4.42-9.83-7l32.74,28.75c5.08,4.45,12.67,9.07,16.67,14.57.19.26,1.53,1,1.5,1.3s-4.81.43-6,.5q-15.22.75-30.38,2l9.82,7.14a128.88,128.88,0,0,0-35.52-25.31,125.78,125.78,0,0,0-25-7.4c-7.07-1.5-17.06-4.74-24.33-3.69-3.47.49-4.12,2.38-4.87,6.08a73.61,73.61,0,0,0-.72,13.1A84.93,84.93,0,0,1,347.15,254a31,31,0,0,1-2.43,8.81c-1.83,3.27-4.09,4.29-7.17,6.55a62.49,62.49,0,0,0-23.5,45c-1.61,21.41-3.27,42.86-4.29,64.3q-.88,16.8-1.44,33.62-.33,9.39-.52,18.76c0,3.16-.07,6.33-.2,9.49v6.39q1.38,5.4-2.65,1.86c-2.46,0-5.8-2.16-8.38-2.62a33.47,33.47,0,0,0-6.55-.45,35.55,35.55,0,0,0-12.93,2.91,38,38,0,0,0-20.2,20.23,174.83,174.83,0,0,0-10.35,48.72A205.49,205.49,0,0,0,278.4,646c.72,1.12,10.18,6.75,9.82,7.14a447,447,0,0,0,31.49-76.87l-9.82-7.14c1.21,23.12,1.7,46.82,4.72,69.77a62.19,62.19,0,0,0,25,41.67c10.48,7.86,21.06,14.87,34.15,17.45,14.77,2.88,30.58,3.08,45.54,4.23a1276.54,1276.54,0,0,0,135.8,3q32.73-1,65.47-3.74c19.87-1.63,41.29-1,58.51-12.4a62,62,0,0,0,27.07-44.82c2.42-21.87,2.23-44.36,3-66.33l-9.82-7.14a464.21,464.21,0,0,0,31,75.3c.56,1.08,10.15,6.84,9.82,7.14a206.24,206.24,0,0,0,21-178.39c-1.11-3.28-8.87-4.06-9.82-7.14a206.27,206.27,0,0,1-21,178.39l9.82,7.14a464.21,464.21,0,0,1-31-75.3c-.75-2.39-10-4.94-9.82-7.14-.69,20.53-1.51,41.06-2.62,61.55a63.94,63.94,0,0,1-12.51,35.62,61.3,61.3,0,0,1-44.49,23.93c-19.31,1.24-38.6,3.27-57.91,4.52a1270.43,1270.43,0,0,1-130,1.14q-28.77-1.2-57.45-3.73c-12.25-1.08-25.54-1-37.39-4.81a38.24,38.24,0,0,1-21.05-15.26,60.9,60.9,0,0,1-10.61-25.17c-2-11.26-2-23.25-2.78-34.64q-1.33-18.82-2.32-37.65c0-1.83-10.38-5.73-9.83-7.13A446.11,446.11,0,0,1,278.79,646l9.82,7.14A205.65,205.65,0,0,1,259.15,507.5c3.7-21.24,8.8-46.22,32.47-53.16a34.15,34.15,0,0,1,16.8-.63c.72,0,9.13,3.83,9.52,3.64,1.12-.62.2-12.54.23-14.34q.52-24.81,1.71-49.6c1.21-25.44,1.54-51.69,5.2-76.93a62.43,62.43,0,0,1,13.56-30.84c3.69-5.11,9.46-8,14.17-12.54s5.08-15,5.44-21.44a109.69,109.69,0,0,1,.85-16.9c1.24-6,2.91-6.35,8.41-5.79a196.75,196.75,0,0,1,31.92,6,93.22,93.22,0,0,1,15.39,5.37c1.73.82,12.86,7.79,8,4.29s1.08,1,2.52,2.32,2.42,2.43,3.73,3.51c2.16,1.8,4.58,3.27,6.88,5,4.68,3.27,9.36,1.63,15,1.24,2.33,0,24.65-1.74,24.69-1.38,0-.65-2.72-2.35-3.28-2.75l-17-14.89-31.1-27.21-9.82-7A338.72,338.72,0,0,0,451,228.67a237.14,237.14,0,0,0,33,16c1.9.75,18.27,5.17,18.63,6.54,0-.42-1.21-.95-1.44-1.27a76.66,76.66,0,0,0-9.56-8.35L476.4,228.25l-18.83-16.7-9.82-7c31.33,24.26,69.86,49.11,110.36,51q10,.46,20,1.15c5.92.39,13.58,2.52,19.31,1.51,4-.69,8.25-5.73,11.85-8.19a81.74,81.74,0,0,1,14-7.79,146.18,146.18,0,0,1,50.65-10.84l-9.82-7.13c4.42,6.15,3.27,14.6,3.5,21.77s.85,17.22,4.94,23.31c2.82,4.15,8.32,7.43,11.49,11.65a61.62,61.62,0,0,1,6.85,11.72,69.32,69.32,0,0,1,5.4,26.19c1.86,43.81,3.63,87.54,4,131.41a55.63,55.63,0,0,0,9.82,7.14,34.91,34.91,0,0,1,24.48-3.7c8.75,1.93,11.53,5.14,16.11,13.82,1.84,3.33,8.38,4,10,7.23Z" transform="translate(-105.61 -95.09)"/>
    <path id="_Path_3" data-name=" Path 3" class="cls-6" d="M497.58,355.43c15.52,41.35,24.81,126.41-39,166a120.54,120.54,0,0,1-165.95-39c-39-62.92,3.63-134.52,39-165.95,8.09-7.33,52.87-46.94,102-31.95C475.78,297.32,492.37,341.52,497.58,355.43Z" transform="translate(-105.61 -95.09)"/>
    <path class="cls-4" d="M492.67,355.43c13.94,37.78,17,83.85.19,121.14-22.91,50.8-84.53,74.34-136,54.73a120.42,120.42,0,0,1-59.29-49.1,107.59,107.59,0,0,1-11.56-84,168.3,168.3,0,0,1,81.39-103.52c16.37-8.84,35.68-15.35,54.44-11.79a79.15,79.15,0,0,1,39.65,21.25c14.67,14.18,24.13,32.44,31.2,51.33.62,1.67,9.82-.32,9.82,0-7.1-18.89-16.53-37.15-31.2-51.33-19.18-18.53-44.56-25.37-70.75-22.92-48.74,4.29-90.58,43.45-112.09,85.25C273.68,395.08,267,428.64,277.28,460a117.56,117.56,0,0,0,57.3,65.87c45.5,23.7,108.69,18.3,146.24-17.94,39.81-38.43,39.71-103.68,21.67-152.53-.62-1.67-9.69.33-9.82,0Z" transform="translate(-105.61 -95.09)"/>
    <path id="_Path_4" data-name=" Path 4" class="cls-6" d="M526.55,360.41c-15.52,41.35-24.81,126.4,39,166a120.54,120.54,0,0,0,166-39c39-62.92-3.63-134.52-39-165.95-8.18-7.27-52.84-46.95-102-31.95C548.36,302.3,531.79,346.53,526.55,360.41Z" transform="translate(-105.61 -95.09)"/>
    <path class="cls-4" d="M521.64,360.41C506,403,503.83,456.73,529.2,495.91,559,541.75,622.61,556,672.47,538.47a122.36,122.36,0,0,0,63.77-50.84c17.64-28.58,19.45-62.5,8.94-94-15.26-45.83-52.58-87.84-99-103.42-29.46-9.82-62.56-6.71-87.08,13.1C541,318,529.66,338.9,521.64,360.41c-.33.92,8.84,2.52,9.82,0a142.67,142.67,0,0,1,26.19-45.83c20.5-22.92,49.76-32.28,79.46-22.92,42.56,13.46,77.52,51.53,94.38,92,11.1,26.62,14.54,56.51,4.72,84.07a116.46,116.46,0,0,1-53.69,61.52c-47.54,25.86-110.76,14-142.19-31.36-27-39-24.75-94.36-8.9-137.28.36-1.08-8.84-2.68-9.79-.16Z" transform="translate(-105.61 -95.09)"/>
    <path id="_Path_5" data-name=" Path 5" class="cls-6" d="M509.79,539.91c-68.42,0-129,115-114.29,157.15.17.45.36.91.53,1.37,35.78,3.05,74.64,4.85,116.22,4.55h2.29c38.79-.33,75.13-2.39,108.69-5.56.29-.66.55-1.31.78-2C638.88,653.51,578.34,539.88,509.79,539.91Z" transform="translate(-105.61 -95.09)"/>
    <path class="cls-4" d="M511.33,539c-28.71.39-53.63,17.54-72.35,38.1a193.23,193.23,0,0,0-45.18,83.26c-2.95,12.37-4.91,26.45,0,38.6a.45.45,0,0,0,.42.22,1294.13,1294.13,0,0,0,228.12-1c.72,0,3-.43,3.28-1.31,5.46-13.75,2.91-29.46-.89-43.31A189,189,0,0,0,600,600.48c-19.65-30-50.36-61-88.69-61.48-.95,0-5.34,1.76-3.11,1.8,38.83.52,70,33.72,89.18,64.23A188,188,0,0,1,620,654.82c3.77,13.72,6.55,29.47,1,42.92l3.27-1.31q-54.75,4.92-109.74,5.47-28.29.3-56.54-.78-12.54-.47-25.07-1.18a232.33,232.33,0,0,1-29.47-2c-6.55-1.21-6.55-3.47-7.46-9.43a63.21,63.21,0,0,1-.2-13.26,122.11,122.11,0,0,1,6.55-29.66,202.18,202.18,0,0,1,34.54-61.71C454.3,562.4,478.89,541.29,508,540.8c1.18,0,5.56-1.84,3.34-1.8Z" transform="translate(-105.61 -95.09)"/>
    <g class="cls-7">
      <ellipse id="_Path_6" data-name=" Path 6" class="cls-8" cx="295.59" cy="319.7" rx="31.66" ry="53.4"/>
      <g class="cls-9">
        <g class="cls-9">
          <path class="cls-10" d="M427.65,439.05l.52-1.38a1.49,1.49,0,0,1-1-.82c0-1.8-1.44,3.28-4,8.55C423.72,445.92,425.29,444.61,427.65,439.05Z" transform="translate(-105.61 -95.09)"/>
          <path class="cls-11" d="M439.3,417.15l-.36-2.3v.23Z" transform="translate(-105.61 -95.09)"/>
          <path class="cls-10" d="M433.15,422.74c-.26,1.9-.39,3.28-.59,4.85s-.2,2.75-.49,4.12a15.81,15.81,0,0,1,1.87-3.27,16.12,16.12,0,0,0,2-4.19V419.6a5.19,5.19,0,0,0-.16,2v-3.47a10.83,10.83,0,0,0-.72,3.27c-.3,1.64-.46,3.6-.62,5.14,0-1.9,0-4.55-.17-6.55-.16.56-.39,1.18-.62,1.8a11.39,11.39,0,0,0-.33,2.39Zm-20.46,30.42.59-.46c.39-.88.91-1.77,1.34-2.85l-.95.85-1,.76-.82,1.53h-.36a1.26,1.26,0,0,1,.19-.78,8.42,8.42,0,0,1-1.14.72h.52c-.49.46-1,.85-1.41,1.24s-.68.59-.62.89S411.15,454,412.69,453.16Z" transform="translate(-105.61 -95.09)"/>
          <path class="cls-12" d="M396.55,457a1.81,1.81,0,0,1-.82,1.21,9.79,9.79,0,0,1,2.13,1c.75.27,1.5.72,2.16.53-.88,1.11,1.15,2.58,4.45,2.58a27.29,27.29,0,0,0,8.91-2.32,19.69,19.69,0,0,0,7-5,79.87,79.87,0,0,0,6.12-7.73,9.17,9.17,0,0,1,.66-3.27,17.7,17.7,0,0,0-2.1,4.22c0,.33-.26.63-.39,1,0-.32.26-.62.39-1,.43-1.24.92-2.39,1.54-3.83-.26.46-.46.76-.56.56a4.81,4.81,0,0,1,.23-1,28.77,28.77,0,0,1-4.45,5.27c-1.37,1.24-2.62,1.8-3.27,1.41l-.85,1c-3.54,4.13-5.31,4.42-5.64,3.8a13.89,13.89,0,0,1-6.35,3.64,8.37,8.37,0,0,1-6.54-1.71H397Z" transform="translate(-105.61 -95.09)"/>
          <path class="cls-13" d="M434.36,414.76a6.08,6.08,0,0,0,1.87-3.28,23.89,23.89,0,0,0,.82-3c.19-1.15.36-2.42.52-3.8a48.89,48.89,0,0,0-2.68-20.1,55.81,55.81,0,0,0-12.22-21.25,32.83,32.83,0,0,0-11.55-8,27.84,27.84,0,0,0-15.45-1.54,1.43,1.43,0,0,1,1.37.63c.13.29,0,.59-.69,1a15.91,15.91,0,0,1-2.65,1.54,18,18,0,0,0-2,1.11l-2.36,1.41a33.69,33.69,0,0,1-2.88,1.87c-1.08.62-2,1.47-3.05,2.19a21.88,21.88,0,0,0-2.45,2.16,7.15,7.15,0,0,0-1.34,1.57,39,39,0,0,0-4.49,8.94c-.95,2.72-2,5.57-3.27,10.28,1-1.44,1.67-1.37,2.52-3.27a126.15,126.15,0,0,1,11.23-16.37,7.88,7.88,0,0,1,3.27-1.9c.88,0,.85.26-1,2.06a34.09,34.09,0,0,1,7.26-4.19c1.22-.33,2.33-.78,3.51-1l1.76-.23h1.84l2.32.2,1.8.49a9.34,9.34,0,0,1,1.35.46l.91.55c1,.66,1.08,1.08.92,1.41s-1.64,1.11-.26,2.62a7.78,7.78,0,0,0,1.73,2.06,33.58,33.58,0,0,1,9.82,8.28,54.22,54.22,0,0,1,7.24,11.66c.88,2,1.11,5.3,1.77,7.4,1.14,3.93,2.09,8.67,2.91,12.34S433.9,415.28,434.36,414.76Z" transform="translate(-105.61 -95.09)"/>
          <path class="cls-14" d="M362.08,409.22a53.4,53.4,0,0,1,.19-9,99.2,99.2,0,0,0-2.58,14.11c.23,1.27.59,2.62.85,3.8A25.85,25.85,0,0,1,362.08,409.22Z" transform="translate(-105.61 -95.09)"/>
          <path class="cls-14" d="M401.92,366.73c.49-.56,0-1-.92-1.34l-1.67-.33a1.74,1.74,0,0,1-1-.2h-1a101.92,101.92,0,0,0-11.78,6.45c0,.36-1.77,2.26-2.33,3.28,0-.43-1.93,1.11-.85-.76-.59.92-1.18,1.87-1.8,2.69a8,8,0,0,0-.82,1.21,4.66,4.66,0,0,0-.42,1.15c-2,2.88.56-2.92-1.05-1.05-2.29,5.89-4.32,11.06-5.86,14.37a10.64,10.64,0,0,1-2.06,3.27c-.56.43-1,0-1.11-1.14a16.35,16.35,0,0,1,0-3.7,39.27,39.27,0,0,0,0-4.06c-.4-2.42,2.81-8.61,5.82-12.77-1.4.82-5.07,7.2-3.83,3.27.76-1.86,1.51-3.83,2.46-5.66.46-.92.82-1.8,1.24-2.62s.85-1.57,1.18-2.22a55.55,55.55,0,0,0-8.28,15.22c-1.8,5.07-3,9.59-3.77,12.34l-1,3.27c-.33,1.05-.56,2.1-.85,3.28a53.41,53.41,0,0,0-.2,9,25.82,25.82,0,0,0-1.51,8.88,12.24,12.24,0,0,0,1.15,3.27c.75,1.67.79-.72,1-3.9v-2.48A19.25,19.25,0,0,1,363,413a19.58,19.58,0,0,1,.75-3.7,27.16,27.16,0,0,0,2.2,11.56c1,1.57,1.86.91,2.62-1.28a48.31,48.31,0,0,0,1.24-4.91c.49-1.83.82-3.9,1.44-6.55.26-1.34.43-2.94.65-4.61s.43-3.44.56-5.11v3.67c1.64-6,3.27-8.16,5.66-15.65.2.39.63-.26,0,1.8.43-2.06.92-2.36,1.35-2.62s.88-.52,1.47-2.52c.82-.69,1.57-.66,2.39-1.08a8.79,8.79,0,0,0,3-3.28l.53-.88.56-.69,1-1.18a18.3,18.3,0,0,1,8.15-7.49,15.53,15.53,0,0,1,7.92-1l-.92-.26h-.81C402.47,367.25,401.92,366.86,401.92,366.73Z" transform="translate(-105.61 -95.09)"/>
          <path class="cls-15" d="M409.12,367.42c-1.37-1.48,0-1.9.26-2.62s0-.76-.91-1.41l-.92-.56a11.1,11.1,0,0,0-1.34-.45l-1.8-.5-2.33-.19h-1.83l-1.77.23a32.69,32.69,0,0,0-3.5,1,33.92,33.92,0,0,0-7.27,4.19c1.87-1.8,1.9-2.13,1-2.06a7.84,7.84,0,0,0-3.27,1.9,127,127,0,0,0-11.23,16.36c-.85,1.77-1.57,1.71-2.52,3.28,1.34-4.72,2.39-7.56,3.27-10.28a39.42,39.42,0,0,1,4.49-8.94,7,7,0,0,1,1.34-1.57,20.23,20.23,0,0,1,2.46-2.16c1-.72,2-1.51,3-2.19s2.1-1.28,2.88-1.87l2.36-1.41a19,19,0,0,1,2-1.11,17.19,17.19,0,0,0,2.66-1.54c.55-.46.81-.72.68-1s-.59-.53-1.37-.63a27.3,27.3,0,0,0-5.37,1.64c-.85.36-1.74.72-2.55,1.15l-2.33,1.4a34.35,34.35,0,0,0-4.32,3.28c-1.37,1.14-2.49,2.42-3.73,3.66-.43.46-.79,1-1.18,1.48s-.72,1.44-1.18,2.22-.82,1.71-1.24,2.62c-.92,1.8-1.71,3.8-2.46,5.67-1.24,3.92,2.39-2.46,3.83-3.28-2.81,4.16-6,10.22-5.76,12.64a34.37,34.37,0,0,1,0,4.06,17.6,17.6,0,0,0,0,3.7c0,1.24.59,1.57,1.11,1.14a10.74,10.74,0,0,0,2.07-3.27c1.5-3.27,3.56-8.48,5.86-14.37,1.6-1.84-1,3.93,1,1a4.69,4.69,0,0,1,.43-1.15c.23-.39.52-.79.82-1.21s1.24-1.8,1.8-2.69c-1.08,1.87.75.33.85.76.56-.89,2.29-2.82,2.32-3.28a100.56,100.56,0,0,1,11.69-6.54h1a1.83,1.83,0,0,1,1,.19l1.67.33c1,.36,1.37.79.91,1.34a2.8,2.8,0,0,0,.89.33,3.67,3.67,0,0,0,.82,0l.91.26a19.38,19.38,0,0,1,6.29,2.06A7.68,7.68,0,0,1,409.12,367.42Z" transform="translate(-105.61 -95.09)"/>
          <path class="cls-16" d="M386.43,378.68a8.84,8.84,0,0,1-3,3.27c-.82.43-1.57.4-2.39,1.08-.59,2-1,2.26-1.47,2.52s-.92.56-1.35,2.62c.46-2.06,0-1.41,0-1.8-2.29,7.53-4,9.82-5.66,15.65-.3.75-.23-2.55,0-3.67a31.4,31.4,0,0,1-.56,5.11c-.29,1.83-.39,3.28-.65,4.62-.59,2.52-.95,4.58-1.44,6.55a47.09,47.09,0,0,1-1.25,4.91c-.75,2.19-1.6,2.84-2.62,1.27a27.25,27.25,0,0,1-1.89-12.05,18.85,18.85,0,0,0-.76,3.7c0,.79-.23,1.64-.29,2.46v2.49c-.23,3.27-.26,5.56-1,3.89A11.88,11.88,0,0,1,360.9,418a61.39,61.39,0,0,0,1.57,14.86,87.36,87.36,0,0,0,5,15c.56,0,.73-.33.4-1.8s-.49-2.59-.62-3.5a11.05,11.05,0,0,1,0-2.3A4.83,4.83,0,0,1,368,438a8.91,8.91,0,0,0,1.21-6.09,38.6,38.6,0,0,0-.16-4,22.44,22.44,0,0,1,0-3.28c.88-3.86,2.58.23,3.47-3.53a55.05,55.05,0,0,1,0-6.55c.91-2,2.12-.88,2.55-5.24.26-1.47.49-2.85.75-4.06s.66-2.32.95-3.27a26.28,26.28,0,0,1,2.1-4.95,22.13,22.13,0,0,1,2.26-3.27l1.11-1.44,1.21-1.37a46.17,46.17,0,0,1,5.08-15.06l-1,1.17-.55.69Z" transform="translate(-105.61 -95.09)"/>
          <path class="cls-17" d="M433.8,461.9l1.31-2.19c.4-.72.76-1.45,1.12-2.13.68-1.41,1.47-2.75,2-4.09A44.55,44.55,0,0,1,428,466.06a25.65,25.65,0,0,1-9.07,4.94c-.43,0-2,1-4.19,2.26-1.15.56-2.52,1.11-4,1.67a47,47,0,0,1-4.84,1.24,42,42,0,0,1-5.14.26,34.54,34.54,0,0,1-4.62-.68,32.35,32.35,0,0,1-3.27-1.25,4.88,4.88,0,0,1-1.74-1.21,3.61,3.61,0,0,1,1.31,0l2.39.33a32.55,32.55,0,0,0,7.11.39,22.91,22.91,0,0,1-3.6-.59,12.55,12.55,0,0,1-3-1,15.47,15.47,0,0,1-2.42-1.18L391,469.92a15.17,15.17,0,0,1-2.78-2.65,13.46,13.46,0,0,1-1-1.25l-.79-1.27a27.45,27.45,0,0,1-1.37-2.49c-.4-.85-.79-1.74-1.22-2.62s-.81-1.93-1.31-3-1-2.29-1.57-3.63a36.31,36.31,0,0,1-2.91-14.9,19.54,19.54,0,0,1,.78-5,4.7,4.7,0,0,1,1.67-2.59c1.08-.52.5-7.66,1.35-13.45-.46-2.26-.66-4.55-.92-6.88-.43,1.61-.85,3.28-1.24,4.32a6.51,6.51,0,0,1-1.12,2.52,9.52,9.52,0,0,0-3.27,5.9,37,37,0,0,0,0,14.08c.62,4.22-2.55,1.89-2.29,4.38l.29,3.5a26,26,0,0,0,.4,3.28c.19,2.06.58,3.89.88,5.7s.78,3.47,1.18,5.27a38.67,38.67,0,0,0,1.83,5.4,22.77,22.77,0,0,0,1.74,3.27,33.92,33.92,0,0,0,3.66,4.62,33.37,33.37,0,0,0,11.3,5.3,30.77,30.77,0,0,0,6.54,1,29.91,29.91,0,0,0,3.28,0,18.92,18.92,0,0,0,3.27-.36c1.54-.42,3-.72,4.26-1.18l3.27-1.37c2-.88,3.44-1.77,4.78-2.42s2.23-1.31,3.28-1.8a19.05,19.05,0,0,0,2.32-1.25,25.55,25.55,0,0,0,3.93-2.49,24.47,24.47,0,0,0,2.19-2.25c.4-.46.85-1,1.31-1.61A18.84,18.84,0,0,0,433.8,461.9Z" transform="translate(-105.61 -95.09)"/>
          <path class="cls-18" d="M375,409.42c-.42,4.39-1.63,3.27-2.55,5.24a55.05,55.05,0,0,0,0,6.55c-.88,3.76-2.62-.33-3.47,3.53a22.31,22.31,0,0,0,0,3.27,26.68,26.68,0,0,0,.16,4,8.83,8.83,0,0,1-1.47,6.15,4.83,4.83,0,0,0-.75,2.36,11,11,0,0,0,0,2.29,17.06,17.06,0,0,0,.62,3.5c.33,1.41.16,1.93-.39,1.8-1.44-1.11,1,4.75,1.86,6.16s1.71,3.27,2.59,4.65,1.47,2.58,2.32,3.7,1.51,2.26,2.43,3.27,1.9,2.36,3.27,3.67,2.19,1.86,3.27,2.78a34.49,34.49,0,0,1-3.86-4.49,21.29,21.29,0,0,1-1.73-3.27c-.72-1.93-1.38-3.67-1.84-5.4a47.44,47.44,0,0,1-1.18-5.27c-.26-1.84-.68-3.64-.88-5.7,0-1-.29-2.06-.39-3.27l-.3-3.51c-.26-2.48,2.92,0,2.29-4.38a37,37,0,0,1,0-14.08,9.51,9.51,0,0,1,3.28-5.89,6.64,6.64,0,0,0,1.11-2.52c.43-1.21.85-2.72,1.25-4.32a54.75,54.75,0,0,1,0-5.73,11.9,11.9,0,0,1,.58-3.08,8.23,8.23,0,0,1,.43-1.11l.2-.43c.29-1.64.39-3.27.72-4.75s.46-3,.78-4.32l-1.21,1.38L381,393.61a21.62,21.62,0,0,0-2.26,3.27,26.86,26.86,0,0,0-2.1,4.94c-.29,1-.68,2.1-.95,3.28S375.24,407.91,375,409.42Z" transform="translate(-105.61 -95.09)"/>
          <path class="cls-19" d="M442,444.25c.36-1.67.79-3.66,1.18-5.3a33,33,0,0,1,1.8-6.16l-.16.46-.2.46a7.77,7.77,0,0,1,.33-1.47c-1.05,2.06-2.16,3.27-2.92,2.91a18.75,18.75,0,0,1-2.06,6c-.55.78-1.11,1.5-1.67,2.19l-1.77,2-3.86,4.48c-.72.86-1.44,1.8-2.36,2.82s-1.73,2.19-2.88,3.27-2.26,2.65-3.76,4.1a52.5,52.5,0,0,1-5.14,4.64c-3.27,2.49-3.6,1.44-4.22.69a1.8,1.8,0,0,0-1.64-.69,7.87,7.87,0,0,0-1.8.36c-.75.27-1.8.4-3,.79a21.82,21.82,0,0,1-6.22.75c-2.13-.19-3.9-.68-4.19-1.37s.95-1.11,1.34-1.7a.66.66,0,0,0,0-.92,6.2,6.2,0,0,0-2.1-1.31,18.07,18.07,0,0,1-6.81-6.55,12.74,12.74,0,0,1-1.14-2c-.33-.68-.69-1.3-.95-2l-.72-2-.33-.95-.23-1a22.59,22.59,0,0,1-.75-6.55,6.3,6.3,0,0,1,1.14-3.66,189.55,189.55,0,0,1-5.1-19.65c-.82,5.8-.27,13.1-1.35,13.46a4.7,4.7,0,0,0-1.67,2.59,19.54,19.54,0,0,0-.78,5A36.26,36.26,0,0,0,380.93,453c.59,1.35,1.05,2.59,1.57,3.64s.86,2.13,1.31,3,.86,1.77,1.22,2.62a26,26,0,0,0,1.37,2.48l.79,1.28a14.92,14.92,0,0,0,1,1.25,15.87,15.87,0,0,0,2.78,2.65l1.94,1.34a16.41,16.41,0,0,0,2.42,1.18,13.52,13.52,0,0,0,3,1,22.91,22.91,0,0,0,3.6.59,33.18,33.18,0,0,1-7.11-.39l-2.39-.33a3.61,3.61,0,0,0-1.31,0,5,5,0,0,0,1.74,1.21,30.06,30.06,0,0,0,3.27,1.24,36.27,36.27,0,0,0,4.62.69,42,42,0,0,0,5.14-.26,47,47,0,0,0,4.84-1.24c1.44-.59,2.82-1.15,4-1.67a41.16,41.16,0,0,1,4.19-2.26,25.67,25.67,0,0,0,9.07-5,44.41,44.41,0,0,0,10.24-12.57c.69-1.6,1.48-3.27,2-4.71Z" transform="translate(-105.61 -95.09)"/>
          <path class="cls-20" d="M396.61,461.41a6,6,0,0,1,2.1,1.31.65.65,0,0,1,0,.91c-.36.59-1.47,1-1.34,1.71s2.06,1.17,4.19,1.37a21.77,21.77,0,0,0,6.22-.75c1.21-.39,2.26-.53,3-.79a7.37,7.37,0,0,1,1.8-.36,1.78,1.78,0,0,1,1.64.69c.62.75.82,1.8,4.22-.69a51.36,51.36,0,0,0,5.14-4.65c1.51-1.44,2.62-2.88,3.77-4.09s2-2.42,2.88-3.27a30.78,30.78,0,0,0,2.35-2.82l3.9-4.42,1.77-2c.55-.68,1.11-1.41,1.67-2.19a18.93,18.93,0,0,0,2.06-6,1.77,1.77,0,0,1-.79-1.15c-.23-.39-1,1.31-1.83,3.54a66,66,0,0,1-3.08,6.54c-1,.79-1.21,0-1.18-1.5s.17-3.8.33-6.06v-4q-.88,2.11-1.77,3.93a13.45,13.45,0,0,1-.52,1.51v-.82a21.12,21.12,0,0,1-2.59,3.83,13.14,13.14,0,0,0-2.45,3,12.46,12.46,0,0,1-.79,2,5.91,5.91,0,0,0,.46-1.48c-.78,1.21-1.73,2.56-2.62,4a40.24,40.24,0,0,1-3.08,4.13,27.78,27.78,0,0,1-3.27,3.5l-1.64,1.31a10.38,10.38,0,0,1-1.6.89,33.7,33.7,0,0,1-8.84,3.66,9.85,9.85,0,0,1-1.21.2h-1.11a4,4,0,0,1-1.74-.33c-.92-.42-1.24-.92-.95-1.57-.65.29-1.44,0-2.22,0a5.5,5.5,0,0,1-1.12-.39,3.37,3.37,0,0,0-1.05-.2,1.93,1.93,0,0,0,.63-1.34l-1.51-1.31a2.57,2.57,0,0,1-.69-1.18,1.35,1.35,0,0,1,.89.26c.36.26.75.43,1.14.66v-.43l-.23-.23c-.52,0-1-.46-1.6-.59a8.9,8.9,0,0,1-2.29-.42,1.81,1.81,0,0,1,1,0l.62.23H397a36.23,36.23,0,0,1-2.81-3.6l-.85-.63.78.53-.42-.62-.49-.33-.56-.53L391.21,449a38.62,38.62,0,0,1-3.27-3.73,15.06,15.06,0,0,0,0-1.9,17.27,17.27,0,0,0-.23-2c-.29-1.31-.52-2.78-1-4.26a6.29,6.29,0,0,0-1.15,3.67,23,23,0,0,0,.75,6.55l.23,1,.33,1,.72,2c.26.68.62,1.27.95,2a12,12,0,0,0,1.15,2A18.12,18.12,0,0,0,396.61,461.41Z" transform="translate(-105.61 -95.09)"/>
        </g>
      </g>
    </g>
    <path id="_Path_7" data-name=" Path 7" class="cls-21" d="M414.36,413.87c-6.29,0-11.39-8.38-11.39-18.69a26.82,26.82,0,0,1,2.48-11.66,13.14,13.14,0,0,0-5.1-1c-11.49,0-20.79,15.25-20.79,34.08s9.3,34.08,20.79,34.08,20.79-15.26,20.79-34.08a59.35,59.35,0,0,0-.33-6A8.72,8.72,0,0,1,414.36,413.87Z" transform="translate(-105.61 -95.09)"/>
    <path class="cls-22" d="M415.28,412.33c-12.31-1.34-10.61-21.8-7.47-29.26.26-.59-.56-.92-.92-1.05-11.88-3.67-21.34,4.42-25.89,15-5.93,13.81-5.47,32.57,3,45.28,5.86,8.8,16.37,12.47,25.53,6.54,12.38-8,14.7-25.6,13.62-38.95,0-1.64-3.66-.33-4.29.22l-4.22,2.33c-2.29.39-3.9,3.27-.62,2.72a15.23,15.23,0,0,0,8.64-4.19l-4.29.22c.89,10.81-2.91,43.74-21.18,37.16-13.78-5-16.37-26.48-14.93-38.66a40.71,40.71,0,0,1,6.55-18.89c2.29-3.27,7.24-8.51,11.33-6,2.85,1.74,1.21,2.59.68,5.5a30.82,30.82,0,0,0-.42,5.08c0,8.44,3.27,18.75,12.87,19.64,2.06.29,5-2.33,2-2.69Z" transform="translate(-105.61 -95.09)"/>
    <g class="cls-7">
      <ellipse id="_Path_8" data-name=" Path 8" class="cls-8" cx="513.79" cy="323.07" rx="31.66" ry="53.4"/>
      <g class="cls-9">
        <g class="cls-9">
          <path class="cls-10" d="M645.85,442.45l.52-1.37a1.52,1.52,0,0,1-1-.82c0-1.8-1.44,3.27-4,8.54C641.92,449.33,643.49,448,645.85,442.45Z" transform="translate(-105.61 -95.09)"/>
          <path class="cls-11" d="M657.47,420.42l-.36-2.29v.23Z" transform="translate(-105.61 -95.09)"/>
          <path class="cls-10" d="M651.32,426.15c-.27,1.9-.4,3.27-.59,4.84s-.2,2.75-.49,4.13a15.77,15.77,0,0,1,1.86-3.27,16,16,0,0,0,2-4.2V423a5.13,5.13,0,0,0-.16,2v-3.5a10.54,10.54,0,0,0-.72,3.27c-.3,1.64-.46,3.61-.63,5.14,0-1.9,0-4.55-.16-6.54-.16.55-.39,1.17-.62,1.8a11.3,11.3,0,0,0-.33,2.39Zm-20.46,30.28.58-.46c.4-.88.92-1.76,1.35-2.85l-.95.86-1,.75-.82,1.54h-.36a1.3,1.3,0,0,1,.2-.79,8.53,8.53,0,0,1-1.15.72h.53c-.49.46-1,.85-1.41,1.25s-.69.59-.62.88S629.32,457.45,630.86,456.43Z" transform="translate(-105.61 -95.09)"/>
          <path class="cls-12" d="M614.72,460.43a1.87,1.87,0,0,1-.82,1.21,8.69,8.69,0,0,1,2.12,1c.76.26,1.51.72,2.17.52-.89,1.12,1.14,2.59,4.45,2.59a27.18,27.18,0,0,0,8.9-2.33,19.61,19.61,0,0,0,7-5,81.44,81.44,0,0,0,6.12-7.73,9.38,9.38,0,0,1,.65-3.27,17.3,17.3,0,0,0-2.09,4.22c0,.33-.26.62-.4.95,0-.33.27-.62.4-.95.42-1.24.91-2.39,1.54-3.83-.27.46-.46.75-.56.56a4.75,4.75,0,0,1,.23-1,29.17,29.17,0,0,1-4.45,5.27c-1.38,1.25-2.62,1.8-3.28,1.41l-.85,1c-3.53,4.12-5.3,4.42-5.63,3.8a13.92,13.92,0,0,1-6.35,3.63,8.38,8.38,0,0,1-6.55-1.7h-2.09Z" transform="translate(-105.61 -95.09)"/>
          <path class="cls-13" d="M652.56,418.16a6,6,0,0,0,1.87-3.27,24.36,24.36,0,0,0,.82-3c.19-1.15.36-2.43.52-3.8a48.88,48.88,0,0,0-2.69-20.1,55.57,55.57,0,0,0-12.17-21.15,32.7,32.7,0,0,0-11.56-8,27.67,27.67,0,0,0-15.45-1.54,1.45,1.45,0,0,1,1.37.62c.13.29,0,.59-.69,1a15.91,15.91,0,0,1-2.65,1.54,16.52,16.52,0,0,0-2,1.12l-2.36,1.4a33.69,33.69,0,0,1-2.88,1.87c-1.08.62-2,1.47-3,2.19a21.13,21.13,0,0,0-2.46,2.16,7.25,7.25,0,0,0-1.34,1.58,38.74,38.74,0,0,0-4.49,8.93c-.95,2.72-2,5.57-3.27,10.28,1-1.44,1.67-1.37,2.52-3.27a127.85,127.85,0,0,1,11.23-16.37,7.88,7.88,0,0,1,3.27-1.9c.89,0,.85.26-1,2.06a34.34,34.34,0,0,1,7.27-4.19c1.21-.32,2.32-.78,3.5-1l1.77-.23h1.83l2.32.2,1.8.49a10.73,10.73,0,0,1,1.35.46l.91.55c1,.66,1.08,1.09.92,1.41s-1.64,1.12-.26,2.62a7.78,7.78,0,0,0,1.73,2.06,33.78,33.78,0,0,1,9.83,8.29,54.4,54.4,0,0,1,7.33,11.55c.88,2,1.11,5.31,1.77,7.4,1.14,3.93,2.09,8.68,2.91,12.34S652.07,418.68,652.56,418.16Z" transform="translate(-105.61 -95.09)"/>
          <path class="cls-14" d="M580.24,412.63a53.52,53.52,0,0,1,.2-9,99.48,99.48,0,0,0-2.59,14.11c.23,1.28.59,2.62.85,3.8A25.79,25.79,0,0,1,580.24,412.63Z" transform="translate(-105.61 -95.09)"/>
          <path class="cls-14" d="M620.12,370.1c.49-.56,0-1-.92-1.34l-1.67-.33a1.81,1.81,0,0,1-1-.19h-1a100.43,100.43,0,0,0-11.68,6.54c0,.36-1.77,2.26-2.33,3.28,0-.43-1.93,1.11-.85-.76-.59.92-1.18,1.87-1.8,2.69a8,8,0,0,0-.82,1.21,4.66,4.66,0,0,0-.42,1.15c-2,2.88.55-2.92-1-1.05-2.29,5.89-4.32,11.06-5.86,14.37a11,11,0,0,1-2.06,3.27c-.56.43-1,0-1.12-1.14a17.6,17.6,0,0,1,0-3.7,34.37,34.37,0,0,0,0-4.06c-.39-2.42,2.82-8.61,5.83-12.77-1.41.82-5.07,7.2-3.83,3.27.75-1.86,1.51-3.83,2.46-5.66.45-.92.81-1.8,1.24-2.62s.85-1.57,1.18-2.22a55.58,55.58,0,0,0-8.29,15.22c-1.8,5.07-3,9.59-3.76,12.34l-1,3.28c-.33,1-.56,2.09-.86,3.27a53.4,53.4,0,0,0-.19,9,25.82,25.82,0,0,0-1.51,8.88,11.9,11.9,0,0,0,1.15,3.27c.75,1.67.78-.72,1-3.9V419a19.23,19.23,0,0,1,.3-2.46,19.58,19.58,0,0,1,.75-3.7,27.12,27.12,0,0,0,1.9,12c1,1.57,1.86.92,2.62-1.28a45.81,45.81,0,0,0,1.24-4.91c.49-1.83.82-3.89,1.44-6.55.26-1.34.43-2.94.66-4.61s.42-3.44.55-5.11v3.67c1.64-6,3.28-8.15,5.67-15.65.19.39.62-.26,0,1.8.42-2.06.91-2.36,1.34-2.62s.88-.52,1.47-2.52c.82-.69,1.57-.66,2.39-1.08a8.87,8.87,0,0,0,3.05-3.27l.52-.89.56-.69,1-1.21a18.42,18.42,0,0,1,8.32-8.12,15.53,15.53,0,0,1,7.92-1l-.92-.26h-.82a1.31,1.31,0,0,1-.78-.46Z" transform="translate(-105.61 -95.09)"/>
          <path class="cls-15" d="M627.29,370.82c-1.38-1.47,0-1.9.26-2.62s0-.75-.92-1.41l-.91-.55a10.73,10.73,0,0,0-1.35-.46l-1.8-.49-2.32-.2h-1.84l-1.76.23c-1.18.2-2.33.66-3.51,1a34.52,34.52,0,0,0-7.26,4.19c1.86-1.8,1.89-2.12,1-2.06a7.88,7.88,0,0,0-3.27,1.9,126.84,126.84,0,0,0-11.23,16.37c-.85,1.77-1.57,1.7-2.52,3.27,1.34-4.71,2.39-7.56,3.27-10.28a38.74,38.74,0,0,1,4.49-8.93,7,7,0,0,1,1.34-1.58,21.88,21.88,0,0,1,2.45-2.16c1-.72,2-1.5,3.05-2.19s2.09-1.28,2.88-1.87l2.36-1.4a16.52,16.52,0,0,1,2-1.12,15.91,15.91,0,0,0,2.65-1.54c.56-.45.82-.72.69-1s-.59-.52-1.38-.62a26.33,26.33,0,0,0-5.36,1.63c-.86.36-1.74.73-2.56,1.15l-2.32,1.41a33.56,33.56,0,0,0-4.32,3.27c-1.38,1.15-2.49,2.42-3.74,3.67-.42.46-.78,1-1.17,1.47A24.14,24.14,0,0,0,593,372.1c-.46.78-.82,1.7-1.25,2.62-.91,1.8-1.7,3.79-2.45,5.66-1.25,3.93,2.39-2.45,3.83-3.27-3,4.19-6.19,10.34-5.83,12.77a34.2,34.2,0,0,1,0,4.05,17.6,17.6,0,0,0,0,3.7c0,1.25.59,1.58,1.11,1.15a11,11,0,0,0,2.07-3.27c1.5-3.28,3.56-8.48,5.86-14.38,1.6-1.83-1,3.93,1,1.05a4.62,4.62,0,0,1,.43-1.14c.23-.4.52-.79.82-1.22s1.24-1.8,1.8-2.68c-1.08,1.87.75.33.85.75.56-.88,2.29-2.81,2.32-3.27a101.47,101.47,0,0,1,11.69-6.55h1a1.75,1.75,0,0,1,1,.2l1.67.33c.95.36,1.37.78.92,1.34a2.54,2.54,0,0,0,.88.32,3.15,3.15,0,0,0,.82,0l.91.27a19.15,19.15,0,0,1,6.29,2.06A7.58,7.58,0,0,1,627.29,370.82Z" transform="translate(-105.61 -95.09)"/>
          <path class="cls-16" d="M604.63,382.08a8.87,8.87,0,0,1-3,3.28c-.82.42-1.57.39-2.39,1.08-.59,2-1,2.26-1.48,2.52s-.91.55-1.34,2.62c.46-2.07,0-1.41,0-1.8-2.29,7.53-4,9.82-5.66,15.65-.3.75-.23-2.56,0-3.67a31.52,31.52,0,0,1-.56,5.11c-.29,1.83-.39,3.27-.65,4.61-.59,2.52-1,4.59-1.44,6.55a45.85,45.85,0,0,1-1.25,4.91c-.75,2.19-1.6,2.85-2.62,1.28a27.4,27.4,0,0,1-1.9-12.05,19.43,19.43,0,0,0-.75,3.7c0,.78-.23,1.64-.29,2.45v2.49c-.23,3.28-.26,5.57-1,3.9a11.83,11.83,0,0,1-1.14-3.28,61.47,61.47,0,0,0,1.57,14.87,87,87,0,0,0,5,15c.56,0,.72-.32.4-1.8s-.49-2.58-.63-3.5a12.51,12.51,0,0,1,0-2.29,5,5,0,0,1,.76-2.36,8.88,8.88,0,0,0,1.47-6.15,38.6,38.6,0,0,0-.16-4,22.44,22.44,0,0,1,0-3.28c.88-3.86,2.58.23,3.47-3.53a55.05,55.05,0,0,1,0-6.55c.91-2,2.13-.89,2.55-5.24.26-1.47.49-2.85.75-4.06s.66-2.32,1-3.27a27,27,0,0,1,2.1-4.95,22.13,22.13,0,0,1,2.26-3.27l1.11-1.44,1-1.44a46.61,46.61,0,0,1,5.14-14.93l-1,1.21-.56.69Z" transform="translate(-105.61 -95.09)"/>
          <path class="cls-17" d="M652,465.3l1.31-2.19c.4-.72.76-1.44,1.12-2.13.68-1.41,1.47-2.75,2-4.09a44.55,44.55,0,0,1-10.24,12.57,25.49,25.49,0,0,1-9.07,4.94c-.43,0-2,1-4.19,2.26-1.15.56-2.52,1.12-4,1.67a47.74,47.74,0,0,1-4.84,1.25,42,42,0,0,1-5.14.26,36,36,0,0,1-4.62-.69,32.28,32.28,0,0,1-3.27-1.24,5.15,5.15,0,0,1-1.74-1.21,3.21,3.21,0,0,1,1.31,0L613,477a33.18,33.18,0,0,0,7.11.4,22.91,22.91,0,0,1-3.6-.59,13.52,13.52,0,0,1-3-1,17,17,0,0,1-2.43-1.18l-1.93-1.35a22.53,22.53,0,0,1-3.8-3.89l-.78-1.28a27.29,27.29,0,0,1-1.38-2.49c-.39-.85-.78-1.73-1.21-2.62s-.82-1.93-1.31-3-1-2.3-1.57-3.64a36.26,36.26,0,0,1-2.91-14.89,19.62,19.62,0,0,1,.78-5.05,4.71,4.71,0,0,1,1.67-2.58c1.08-.53.49-7.66,1.35-13.46-.46-2.26-.66-4.55-.92-6.87-.43,1.6-.85,3.27-1.24,4.32a6.51,6.51,0,0,1-1.12,2.52,9.49,9.49,0,0,0-3.27,5.89,37,37,0,0,0,0,14.08c.62,4.22-2.56,1.9-2.29,4.39l.29,3.5a28,28,0,0,0,.39,3.27c.2,2.07.59,3.9.89,5.7s.78,3.47,1.18,5.27a38.67,38.67,0,0,0,1.83,5.4,22.88,22.88,0,0,0,1.74,3.28,33.83,33.83,0,0,0,3.66,4.61,33.2,33.2,0,0,0,11.3,5.31,32.1,32.1,0,0,0,6.54,1,29.91,29.91,0,0,0,3.28,0,20,20,0,0,0,3.27-.36c1.54-.43,3-.72,4.26-1.18l3.27-1.38c2-.88,3.44-1.76,4.78-2.42s2.23-1.31,3.27-1.8a20.14,20.14,0,0,0,2.33-1.24,26.85,26.85,0,0,0,3.93-2.49,24.58,24.58,0,0,0,2.19-2.26c.39-.46.85-1,1.31-1.6s.66-1.31,1.11-2.07Z" transform="translate(-105.61 -95.09)"/>
          <path class="cls-18" d="M593.14,412.79c-.42,4.39-1.64,3.28-2.55,5.24a55.05,55.05,0,0,0,0,6.55c-.89,3.76-2.62-.33-3.47,3.53a22.44,22.44,0,0,0,0,3.28,26.6,26.6,0,0,0,.16,4,8.88,8.88,0,0,1-1.47,6.15,5,5,0,0,0-.76,2.36,12.51,12.51,0,0,0,0,2.29,17.06,17.06,0,0,0,.63,3.5c.32,1.41.16,1.94-.4,1.81-1.44-1.12,1,4.74,1.87,6.15s1.7,3.27,2.59,4.65,1.47,2.59,2.32,3.7,1.51,2.26,2.42,3.27,1.9,2.36,3.28,3.67,2.19,1.9,3.27,2.78a34.69,34.69,0,0,1-3.67-4.61,23.87,23.87,0,0,1-1.73-3.28,56.54,56.54,0,0,1-1.83-5.4,45.29,45.29,0,0,1-1.18-5.27c-.26-1.83-.69-3.63-.89-5.7,0-1-.29-2.06-.39-3.27l-.29-3.5c-.27-2.49,2.91,0,2.29-4.39a37,37,0,0,1,0-14.08,9.49,9.49,0,0,1,3.27-5.89,6.35,6.35,0,0,0,1.11-2.52c.43-1.21.86-2.72,1.25-4.32a54.75,54.75,0,0,1,0-5.73,12,12,0,0,1,.59-3.08,7.44,7.44,0,0,1,.42-1.11l.2-.43c.29-1.64.39-3.27.72-4.75s.46-3,.79-4.32l-1.22,1.38-1.11,1.44a22.92,22.92,0,0,0-2.26,3.27,26.91,26.91,0,0,0-2.09,4.95c-.3,1-.69,2.09-1,3.27s-.66,3-.92,4.45Z" transform="translate(-105.61 -95.09)"/>
          <path class="cls-19" d="M660.19,447.62c.36-1.66.78-3.66,1.18-5.3a32.85,32.85,0,0,1,1.8-6.15l-.17.46-.19.45a8.59,8.59,0,0,1,.32-1.47c-1,2.06-2.16,3.27-2.91,2.91a19,19,0,0,1-2.06,6c-.56.78-1.11,1.5-1.67,2.19l-1.77,2-4,4.39c-.72.85-1.44,1.8-2.36,2.81s-1.74,2.2-2.88,3.28-2.26,2.65-3.77,4.09a51.59,51.59,0,0,1-5.14,4.65c-3.27,2.49-3.6,1.44-4.22.69a1.77,1.77,0,0,0-1.64-.69,7,7,0,0,0-1.8.36c-.75.26-1.8.39-3,.78a21.74,21.74,0,0,1-6.22.76c-2.13-.2-3.89-.69-4.19-1.38s1-1.11,1.34-1.7a.66.66,0,0,0,0-.92,6.16,6.16,0,0,0-2.09-1.31,18.12,18.12,0,0,1-6.81-6.54,12.8,12.8,0,0,1-1.15-2c-.32-.69-.68-1.31-.95-2l-.72-2-.32-.95-.23-1a22.63,22.63,0,0,1-.76-6.55,6.26,6.26,0,0,1,1.15-3.67,190.07,190.07,0,0,1-5.11-19.64c-.82,5.79-.26,13.09-1.34,13.45a4.7,4.7,0,0,0-1.67,2.59,20,20,0,0,0-.79,5,36.48,36.48,0,0,0,2.92,14.9c.59,1.34,1,2.58,1.57,3.63s.85,2.13,1.31,3,.85,1.77,1.21,2.62.88,1.68,1.38,2.49l.78,1.27a15.43,15.43,0,0,0,1,1.25,14.85,14.85,0,0,0,2.78,2.65L611,474.5a15.47,15.47,0,0,0,2.42,1.18,12.55,12.55,0,0,0,3,1,22.15,22.15,0,0,0,3.6.59,32.49,32.49,0,0,1-7.1-.39l-2.39-.33a3.61,3.61,0,0,0-1.31,0,4.79,4.79,0,0,0,1.74,1.21,31.46,31.46,0,0,0,3.27,1.25,35.85,35.85,0,0,0,4.61.69,41.94,41.94,0,0,0,5.14-.27,47.2,47.2,0,0,0,4.85-1.24c1.44-.59,2.82-1.15,4-1.67a44.83,44.83,0,0,1,4.19-2.26A25.56,25.56,0,0,0,646,469.3a44.58,44.58,0,0,0,10.25-12.57c.69-1.61,1.47-3.28,2-4.72Z" transform="translate(-105.61 -95.09)"/>
          <path class="cls-20" d="M614.72,464.78a6.16,6.16,0,0,1,2.09,1.31.66.66,0,0,1,0,.92c-.36.59-1.47,1-1.34,1.7s2.06,1.18,4.19,1.37a21.77,21.77,0,0,0,6.22-.75c1.21-.39,2.26-.52,3-.79a7.87,7.87,0,0,1,1.8-.36,1.79,1.79,0,0,1,1.64.69c.62.75.82,1.8,4.22-.69a51.38,51.38,0,0,0,5.14-4.64c1.51-1.44,2.62-2.89,3.77-4.1s2-2.42,2.88-3.27a29.49,29.49,0,0,0,2.35-2.82l3.9-4.42,1.77-2c.55-.68,1.11-1.4,1.67-2.19a18.85,18.85,0,0,0,2.06-6,1.78,1.78,0,0,1-.79-1.15c-.22-.39-1,1.31-1.83,3.54a67.28,67.28,0,0,1-3.08,6.55c-.95.78-1.21,0-1.17-1.51s.16-3.8.32-6.06v-4c-.59,1.4-1.18,2.71-1.77,3.92a11.21,11.21,0,0,1-.52,1.51v-.82a21.12,21.12,0,0,1-2.59,3.83,13.14,13.14,0,0,0-2.45,3,12.46,12.46,0,0,1-.79,2,6,6,0,0,0,.46-1.47c-.78,1.21-1.73,2.55-2.62,4a41.13,41.13,0,0,1-3.07,4.12,28.61,28.61,0,0,1-3.28,3.5l-1.64,1.31a9.61,9.61,0,0,1-1.6.89,33.37,33.37,0,0,1-8.84,3.66,8.25,8.25,0,0,1-1.21.2h-1.11a4,4,0,0,1-1.74-.33c-.91-.42-1.24-.91-.95-1.57-.65.3-1.44,0-2.22,0a5.5,5.5,0,0,1-1.12-.39,3.37,3.37,0,0,0-1-.2,1.94,1.94,0,0,0,.62-1.34l-1.51-1.31a2.57,2.57,0,0,1-.69-1.18,1.35,1.35,0,0,1,.89.26,11.66,11.66,0,0,0,1.14.66v-.43l-.23-.23c-.52,0-1-.45-1.6-.58a8.91,8.91,0,0,1-2.29-.43,1.81,1.81,0,0,1,1,0l.62.23h1.71a34.9,34.9,0,0,1-2.82-3.6l-.85-.62.78.52-.42-.62-.49-.33-.56-.52-1.41-1.25a38.62,38.62,0,0,1-3.27-3.73,15.06,15.06,0,0,0,0-1.9,17.27,17.27,0,0,0-.23-2c-.29-1.31-.52-2.78-1-4.25a6.23,6.23,0,0,0-1.15,3.66,22.59,22.59,0,0,0,.76,6.55l.22,1,.33,1,.72,2c.26.69.62,1.27.95,2a12.8,12.8,0,0,0,1.15,2,18.08,18.08,0,0,0,6.91,6.22Z" transform="translate(-105.61 -95.09)"/>
        </g>
      </g>
    </g>
    <path id="_Path_9" data-name=" Path 9" class="cls-21" d="M632.23,415.18c-6.29,0-11.39-8.38-11.39-18.69a27,27,0,0,1,2.49-11.66,13.22,13.22,0,0,0-5.11-1c-11.49,0-20.79,15.25-20.79,34.08S606.73,452,618.22,452,639,436.69,639,417.87a56.53,56.53,0,0,0-.33-6A8.7,8.7,0,0,1,632.23,415.18Z" transform="translate(-105.61 -95.09)"/>
    <path class="cls-22" d="M633,413.38c-11.92-1.31-10.61-20.75-7.44-28.25a1.47,1.47,0,0,0-.8-1.92l-.11,0c-31.37-9.82-34.15,43.55-22.92,60.73,5.83,8.78,16.37,13.1,25.63,6.78,12.35-8.22,14.61-25.93,13.49-39.29,0-1.7-3.27-1.24-4-.52l-5.3,2.72c-3,.49-2,3.93.91,3.27a13.46,13.46,0,0,0,7.57-3.83l-4-.52c.88,10.77-.5,23.27-7.7,31.88-8,9.53-18.1,4.95-23.44-4.45a48.2,48.2,0,0,1-4.78-30.12c1.51-10.31,7.92-27.63,21.58-23.41l-.92-2c-4.29,10.08-4.09,30.87,10.38,32.44,2.58.27,5-3,1.77-3.5Z" transform="translate(-105.61 -95.09)"/>
    <path id="_Path_10" data-name=" Path 10" class="cls-3" d="M563.19,522,510.87,591,458.59,522l52.28-52.29Z" transform="translate(-105.61 -95.09)"/>
    <path class="cls-4" d="M561.22,521.42l-52.38,68.91,4.13-.39-41.81-55.1c-2.91-3.83-5.6-8.12-8.84-11.66a9.28,9.28,0,0,1-1.6-2.09c.75,1.7-.82,1.41,1.27,0a83.63,83.63,0,0,0,10.35-10.35l16-16,24.42-24.43-4.13.4L561,523.09c1.41,1.4,5.9-.46,4.36-2L513,468.68a3.27,3.27,0,0,0-4.13.39l-52.38,52.38a1.24,1.24,0,0,0-.23,1.6L508.64,592c.89,1.14,3.28.62,4.13-.4l52.38-68.91c1.77-2.39-2.82-2.85-3.93-1.24Z" transform="translate(-105.61 -95.09)"/>
    <path id="_Path_11" data-name=" Path 11" class="cls-23" d="M560.73,522.37l-49.11,64.75-1-114.81Z" transform="translate(-105.61 -95.09)"/>
    <path id="_Path_12" data-name=" Path 12" class="cls-24" d="M429,231.85c-13.35-6.35-17.32-.17-4.65,5.86A176.47,176.47,0,0,1,480,293.36a300.65,300.65,0,0,1,30.51,70.19A175.92,175.92,0,0,0,429,231.68Z" transform="translate(-105.61 -95.09)"/>
    <path id="_Path_13" data-name=" Path 13" class="cls-24" d="M596.94,224.71c13.36-6.35,17.32-.16,4.65,5.86a176.5,176.5,0,0,0-55.66,55.66,300.65,300.65,0,0,0-30.51,70.19,175.89,175.89,0,0,1,81.52-131.87Z" transform="translate(-105.61 -95.09)"/>
    <path class="cls-4" d="M451.81,614.39a46.23,46.23,0,0,0,37.78,0c1.05-.46-3.27-7.23-5.14-6.35a44.29,44.29,0,0,1-36,0c-1.93-.85,1.77,5.47,3.5,6.25Zm75.82,0a42.53,42.53,0,0,0,37.78,0c1.11-.55-3.27-7.3-5.14-6.35a40.69,40.69,0,0,1-36,0c-1.83-.88,1.77,5.4,3.5,6.25ZM492,646.64a39.46,39.46,0,0,0,37.78,0c1.18-.62-3.27-7.33-5.14-6.35a37.72,37.72,0,0,1-36,0c-1.74-.95,1.83,5.33,3.5,6.25ZM437.67,676a48.38,48.38,0,0,0,37.78,0c1-.43-3.08-7.21-5.14-6.36a46.38,46.38,0,0,1-36,0c-2-.81,1.73,5.5,3.5,6.26Zm102.8-1.15a44,44,0,0,0,37.78,0c1.08-.52-3.28-7.27-5.14-6.35a42.21,42.21,0,0,1-36,0c-1.86-.89,1.77,5.43,3.51,6.25Z" transform="translate(-105.61 -95.09)"/>
  </g>
</svg>
