<svg xmlns="http://www.w3.org/2000/svg" viewBox="0 0 795.62 833.6">
  <defs>
    <style>
      .cls-1 {
        fill: none;
      }

      .cls-2 {
        font-size: 132.09px;
        font-family: MyriadPro-Regular, Myriad Pro;
      }

      .cls-2, .cls-9 {
        fill: #fff;
      }

      .cls-3 {
        letter-spacing: 0em;
      }

      .cls-4 {
        letter-spacing: 0em;
      }

      .cls-5 {
        fill: #f3a134;
      }

      .cls-6 {
        fill: #f5f5fb;
      }

      .cls-7 {
        fill: #3785bd;
      }

      .cls-8 {
        fill: #35b065;
      }
    </style>
  </defs>
  <title>Files</title>
  <g id="Layer_1" data-name="Layer 1">
    <rect class="cls-1" width="795.62" height="832.32"/>
  </g>
  <g id="Files">
    <text class="cls-2" transform="translate(276.78 586.57)">D<tspan class="cls-3" x="87.97" y="0">a</tspan><tspan class="cls-4" x="151.11" y="0">ta</tspan><tspan x="0" y="158.51">Upload</tspan></text>
    <g>
      <path class="cls-5" d="M145.2,119.58l3.34,657.87a15.27,15.27,0,0,0,7.52,14.2,15.46,15.46,0,0,0,12.52.83h562.7a20.11,20.11,0,0,0,14.19-5,19.57,19.57,0,0,0,5.85-10V343.32l-248.79,5q-3.34-123.55-6.68-247.12l-318.92-5c-1.09-.36-11.93-3.71-21.71,3.34C145.19,106.77,145.18,118.52,145.2,119.58Z" transform="translate(-114.21 -95.09)"/>
      <path class="cls-5" d="M553.45,109.56l.84,184.5,182.84,1.67Z" transform="translate(-114.21 -95.09)"/>
    </g>
    <path class="cls-6" d="M202.7,175.37,206,833.25a15.27,15.27,0,0,0,7.52,14.19,15.53,15.53,0,0,0,12.52.84H788.79a20.24,20.24,0,0,0,14.19-5,19.68,19.68,0,0,0,5.84-10V399.11c.38-118.68-.33-205.51-1.52-222.9-.28-4-1.56-11.11-6.83-16.7-6.59-7-16.13-7.89-19.51-8.21-18-1.68-241.5-1.3-546.53.69-1.09-.36-11.93-3.71-21.71,3.34C202.7,162.56,202.69,174.31,202.7,175.37Z" transform="translate(-114.21 -95.09)"/>
    <g>
      <path class="cls-7" d="M215.33,189.7l3.34,657.88a15.28,15.28,0,0,0,7.51,14.2,15.49,15.49,0,0,0,12.53.83h562.7a20.11,20.11,0,0,0,14.19-5,19.57,19.57,0,0,0,5.85-10V413.45l-248.79,5Q569.31,294.9,566,171.34l-318.92-5c-1.1-.36-11.93-3.71-21.71,3.34C215.32,176.9,215.31,188.65,215.33,189.7Z" transform="translate(-114.21 -95.09)"/>
      <path class="cls-7" d="M623.58,179.69l.84,184.5,182.84,1.67Q715.42,272.77,623.58,179.69Z" transform="translate(-114.21 -95.09)"/>
    </g>
    <path class="cls-6" d="M262.82,235.48l3.34,657.88a15.23,15.23,0,0,0,7.51,14.19,15.48,15.48,0,0,0,12.52.84H848.9a20.24,20.24,0,0,0,14.19-5,19.68,19.68,0,0,0,5.84-10V459.22c.38-118.68-.33-205.51-1.52-222.9-.28-4-1.56-11.11-6.83-16.7-6.59-7-16.13-7.89-19.51-8.21-18-1.68-241.5-1.3-546.53.69-1.09-.36-11.93-3.71-21.71,3.34C262.81,222.67,262.8,234.42,262.82,235.48Z" transform="translate(-114.21 -95.09)"/>
    <g>
      <path class="cls-8" d="M277.11,254.82l3.34,657.88A15.28,15.28,0,0,0,288,926.9a15.49,15.49,0,0,0,12.53.83h562.7a20.11,20.11,0,0,0,14.19-5,19.57,19.57,0,0,0,5.85-10V478.57l-248.79,5q-3.13-126.69-6.26-253.38l-319.34,1.25c-1.1-.36-11.93-3.71-21.71,3.34C277.1,242,277.09,253.77,277.11,254.82Z" transform="translate(-114.21 -95.09)"/>
      <path class="cls-8" d="M685.36,244.81l.84,184.5L869,431Q777.2,337.89,685.36,244.81Z" transform="translate(-114.21 -95.09)"/>
    </g>
    <g>
      <path class="cls-9" d="M359.8,600.62h9.58v49.7c0,19.72-9.69,25.78-22.48,25.78a31.16,31.16,0,0,1-10.25-1.76l1.44-7.82a22.89,22.89,0,0,0,8,1.43c8.6,0,13.67-3.86,13.67-18.4Z" transform="translate(-114.21 -95.09)"/>
      <path class="cls-9" d="M384,663.21a33.93,33.93,0,0,0,17.19,4.85c9.81,0,15.54-5.18,15.54-12.67,0-6.94-4-10.91-14-14.77-12.12-4.3-19.61-10.58-19.61-21,0-11.57,9.59-20.16,24-20.16,7.61,0,13.12,1.76,16.42,3.63L421,610.87a29.53,29.53,0,0,0-14.11-3.53c-10.14,0-14,6.06-14,11.13,0,6.94,4.51,10.36,14.76,14.33,12.57,4.85,19,10.91,19,21.82,0,11.46-8.49,21.37-26,21.37-7.16,0-15-2.09-18.95-4.73Z" transform="translate(-114.21 -95.09)"/>
      <path class="cls-9" d="M503.17,637c0,25.57-15.54,39.12-34.49,39.12-19.62,0-33.39-15.2-33.39-37.68,0-23.59,14.65-39,34.49-39C490.05,599.41,503.17,614.94,503.17,637Zm-57.64,1.22c0,15.87,8.6,30.08,23.7,30.08s23.8-14,23.8-30.86c0-14.76-7.71-30.19-23.69-30.19S445.53,621.89,445.53,638.2Z" transform="translate(-114.21 -95.09)"/>
      <path class="cls-9" d="M515.62,674.89V600.62h10.47l23.8,37.58a210.71,210.71,0,0,1,13.34,24.13l.22-.11c-.88-9.92-1.1-19-1.1-30.53V600.62h9v74.27h-9.69L538.1,637.2a234.26,234.26,0,0,1-13.88-24.79l-.33.11c.55,9.37.77,18.29.77,30.64v31.73Z" transform="translate(-114.21 -95.09)"/>
      <path class="cls-9" d="M581.52,688.45a157.89,157.89,0,0,0,6.61-26.34l10.8-1.1c-2.53,9.36-7.38,21.6-10.46,26.78Z" transform="translate(-114.21 -95.09)"/>
      <path class="cls-9" d="M686.21,672.47c-3.53,1.76-10.58,3.52-19.62,3.52-20.93,0-36.69-13.22-36.69-37.57,0-23.25,15.76-39,38.79-39,9.26,0,15.1,2,17.63,3.3L684,610.54a34.85,34.85,0,0,0-15-3.09c-17.41,0-29,11.13-29,30.64,0,18.18,10.47,29.86,28.54,29.86,5.84,0,11.79-1.21,15.65-3.09Z" transform="translate(-114.21 -95.09)"/>
      <path class="cls-9" d="M696.9,663.21a33.93,33.93,0,0,0,17.19,4.85c9.81,0,15.54-5.18,15.54-12.67,0-6.94-4-10.91-14-14.77-12.12-4.3-19.61-10.58-19.61-21,0-11.57,9.59-20.16,24-20.16,7.61,0,13.12,1.76,16.42,3.63l-2.64,7.83a29.53,29.53,0,0,0-14.11-3.53c-10.14,0-14,6.06-14,11.13,0,6.94,4.52,10.36,14.76,14.33,12.57,4.85,19,10.91,19,21.82,0,11.46-8.49,21.37-26,21.37-7.16,0-15-2.09-18.95-4.73Z" transform="translate(-114.21 -95.09)"/>
      <path class="cls-9" d="M768.86,674.89l-24.24-74.27H755l11.57,36.58c3.19,10,6,19.07,7.93,27.77h.22c2.1-8.59,5.18-18,8.49-27.66l12.56-36.69H806l-26.56,74.27Z" transform="translate(-114.21 -95.09)"/>
      <path class="cls-9" d="M801.38,688.45A159.87,159.87,0,0,0,808,662.11l10.8-1.1c-2.54,9.36-7.39,21.6-10.47,26.78Z" transform="translate(-114.21 -95.09)"/>
      <path class="cls-9" d="M512.26,807.14l-9.48-16.42c-3.86-6.28-6.28-10.36-8.59-14.66H494c-2.1,4.3-4.19,8.27-8.05,14.77L477,807.14H466l22.71-37.58-21.82-36.7H478l9.8,17.41c2.76,4.85,4.85,8.6,6.84,12.57H495c2.09-4.41,4-7.83,6.72-12.57l10.14-17.41h11L500.25,769l23.14,38.13Z" transform="translate(-114.21 -95.09)"/>
      <path class="cls-9" d="M534.52,732.86h9.59v66.23h31.74v8H534.52Z" transform="translate(-114.21 -95.09)"/>
      <path class="cls-9" d="M585.21,795.46a34,34,0,0,0,17.19,4.84c9.81,0,15.54-5.18,15.54-12.67,0-6.94-4-10.91-14-14.76-12.12-4.3-19.62-10.58-19.62-21,0-11.57,9.59-20.17,24-20.17,7.61,0,13.12,1.76,16.42,3.64l-2.64,7.82A29.58,29.58,0,0,0,608,739.58c-10.13,0-14,6.07-14,11.13,0,6.95,4.52,10.36,14.77,14.33,12.56,4.85,19,10.91,19,21.82,0,11.46-8.49,21.38-26,21.38-7.16,0-15-2.1-19-4.74Z" transform="translate(-114.21 -95.09)"/>
      <path class="cls-9" d="M681.53,807.14l-9.48-16.42c-3.86-6.28-6.28-10.36-8.59-14.66h-.23c-2.09,4.3-4.18,8.27-8,14.77l-8.93,16.31h-11L658,769.56l-21.82-36.7h11.13l9.8,17.41c2.76,4.85,4.85,8.6,6.84,12.57h.33c2.09-4.41,4-7.83,6.72-12.57l10.14-17.41h11L669.52,769l23.14,38.13Z" transform="translate(-114.21 -95.09)"/>
    </g>
  </g>
</svg>
