<svg xmlns="http://www.w3.org/2000/svg" viewBox="0 0 795.62 832.32">
  <defs>
    <style>
      .cls-1 {
        fill: none;
      }

      .cls-2 {
        fill: #455567;
      }

      .cls-3 {
        fill: #f5f5fb;
      }

      .cls-4 {
        fill: #fff;
      }
    </style>
  </defs>
  <title>FilesCustom</title>
  <g id="Layer_1" data-name="Layer 1">
    <rect class="cls-1" width="795.62" height="832.32"/>
  </g>
  <g id="FilesCustom">
    <g>
      <path class="cls-2" d="M146.26,123.34l3.32,653.75a15.18,15.18,0,0,0,7.47,14.11,15.41,15.41,0,0,0,12.44.83H728.67a20.1,20.1,0,0,0,14.11-5,19.57,19.57,0,0,0,5.8-10V345.68l-247.23,5Q498,227.87,494.71,105.08l-316.92-5c-1.09-.36-11.85-3.69-21.57,3.31C146.26,110.61,146.25,122.29,146.26,123.34Z" transform="translate(-114.21 -95.09)"/>
      <path class="cls-2" d="M552,113.38q.4,91.68.83,183.35l181.69,1.66Z" transform="translate(-114.21 -95.09)"/>
    </g>
    <path class="cls-3" d="M203.41,178.78l3.32,653.76a15.13,15.13,0,0,0,7.46,14.1,15.39,15.39,0,0,0,12.45.83H785.81a20,20,0,0,0,14.11-5,19.51,19.51,0,0,0,5.81-10V401.12c.38-117.94-.33-204.22-1.52-221.5-.27-4-1.54-11.05-6.78-16.6-6.55-7-16-7.84-19.39-8.16-17.85-1.67-240-1.29-543.11.69-1.08-.36-11.85-3.69-21.57,3.32C203.4,166.05,203.39,177.73,203.41,178.78Z" transform="translate(-114.21 -95.09)"/>
    <g>
      <path class="cls-2" d="M216,193l3.32,653.75a15.18,15.18,0,0,0,7.47,14.11,15.41,15.41,0,0,0,12.44.83H798.36a20.1,20.1,0,0,0,14.11-5,19.57,19.57,0,0,0,5.8-10V415.37l-247.23,5q-3.31-122.79-6.64-245.58l-316.92-5c-1.09-.35-11.85-3.68-21.57,3.32C216,180.3,215.94,192,216,193Z" transform="translate(-114.21 -95.09)"/>
      <path class="cls-2" d="M621.65,183.07q.4,91.68.83,183.35l181.69,1.66Z" transform="translate(-114.21 -95.09)"/>
    </g>
    <path class="cls-3" d="M263.14,238.51l3.32,653.76a15.14,15.14,0,0,0,7.47,14.1,15.32,15.32,0,0,0,12.44.83H845.55a20,20,0,0,0,14.1-5,19.53,19.53,0,0,0,5.81-10V460.86c.38-117.95-.33-204.23-1.52-221.51-.27-4-1.54-11-6.78-16.6-6.54-6.95-16-7.84-19.39-8.15-17.85-1.68-240-1.29-543.1.68-1.09-.35-11.86-3.69-21.57,3.32C263.13,225.79,263.12,237.46,263.14,238.51Z" transform="translate(-114.21 -95.09)"/>
    <g>
      <path class="cls-2" d="M277.35,257.74l3.32,653.76a15.17,15.17,0,0,0,7.46,14.1,15.39,15.39,0,0,0,12.45.83H859.76a20.09,20.09,0,0,0,14.1-5,19.51,19.51,0,0,0,5.81-10V480.08l-247.24,5q-3.1-125.9-6.22-251.8l-317.34,1.25c-1.08-.36-11.85-3.69-21.57,3.32C277.34,245,277.33,256.69,277.35,257.74Z" transform="translate(-114.21 -95.09)"/>
      <path class="cls-2" d="M683,247.78q.42,91.68.83,183.35l181.69,1.66Z" transform="translate(-114.21 -95.09)"/>
    </g>
    <g>
      <path class="cls-4" d="M418.28,657c-4.4,2.2-13.18,4.39-24.43,4.39-26.07,0-45.69-16.47-45.69-46.79,0-28.95,19.62-48.58,48.3-48.58,11.52,0,18.8,2.47,22,4.12l-2.88,9.74A43.58,43.58,0,0,0,396.87,576c-21.68,0-36.09,13.86-36.09,38.15,0,22.64,13,37.18,35.54,37.18,7.27,0,14.68-1.5,19.49-3.84Z" transform="translate(-114.21 -95.09)"/>
      <path class="cls-4" d="M486.75,641.87c0,6.86.14,12.89.55,18.11H476.6l-.69-10.84h-.27a25,25,0,0,1-22,12.35c-10.43,0-22.91-5.76-22.91-29.09V593.56h12.07v36.78c0,12.62,3.84,21.13,14.82,21.13,8.1,0,13.72-5.62,15.92-11a17.55,17.55,0,0,0,1.1-6.17V593.56h12.07Z" transform="translate(-114.21 -95.09)"/>
      <path class="cls-4" d="M505.14,647.63a31.68,31.68,0,0,0,15.92,4.8c8.78,0,12.9-4.39,12.9-9.88,0-5.76-3.43-8.92-12.35-12.21-11.94-4.25-17.56-10.84-17.56-18.8,0-10.7,8.64-19.49,22.91-19.49a33.18,33.18,0,0,1,16.33,4.12l-3,8.78a25.88,25.88,0,0,0-13.58-3.84c-7.14,0-11.12,4.12-11.12,9.06,0,5.49,4,8,12.63,11.25,11.52,4.39,17.42,10.15,17.42,20,0,11.67-9,19.9-24.83,19.9-7.28,0-14-1.78-18.67-4.53Z" transform="translate(-114.21 -95.09)"/>
      <path class="cls-4" d="M575.68,574.49v19.07H593v9.2H575.68v35.81c0,8.24,2.33,12.9,9.05,12.9a27,27,0,0,0,7-.82l.55,9.06a29.59,29.59,0,0,1-10.7,1.64c-5.63,0-10.16-1.78-13-5.08-3.43-3.56-4.66-9.46-4.66-17.29V602.76h-10.3v-9.2h10.3V577.65Z" transform="translate(-114.21 -95.09)"/>
      <path class="cls-4" d="M665.83,626.22c0,24.57-17,35.27-33.07,35.27-18,0-31.83-13.17-31.83-34.17,0-22.23,14.54-35.27,32.93-35.27C652.94,592.05,665.83,605.91,665.83,626.22Zm-52.69.69c0,14.54,8.37,25.52,20.17,25.52,11.53,0,20.17-10.84,20.17-25.8,0-11.25-5.62-25.52-19.89-25.52S613.14,614.28,613.14,626.91Z" transform="translate(-114.21 -95.09)"/>
      <path class="cls-4" d="M681.07,611.54c0-6.86-.14-12.49-.55-18h10.57l.55,10.71h.41c3.7-6.31,9.88-12.22,20.86-12.22,9.05,0,15.91,5.49,18.8,13.32H732a27.3,27.3,0,0,1,7.41-8.65c4-3,8.37-4.67,14.68-4.67,8.78,0,21.82,5.77,21.82,28.82V660h-11.8v-37.6c0-12.76-4.67-20.45-14.41-20.45-6.86,0-12.21,5.08-14.27,11a19.86,19.86,0,0,0-1,6v41h-11.8v-39.8c0-10.56-4.67-18.25-13.86-18.25-7.55,0-13,6-15,12.08a16.76,16.76,0,0,0-1,5.9V660h-11.8Z" transform="translate(-114.21 -95.09)"/>
      <path class="cls-4" d="M476.53,732.17h49.81v10H488.47v30.74h35v9.88h-35v41.85H476.53Z" transform="translate(-114.21 -95.09)"/>
      <path class="cls-4" d="M552.83,739.58c.14,4.11-2.88,7.41-7.68,7.41a7.18,7.18,0,0,1-7.27-7.41,7.35,7.35,0,0,1,7.54-7.55A7.17,7.17,0,0,1,552.83,739.58Zm-13.45,85.07V758.24h12.08v66.41Z" transform="translate(-114.21 -95.09)"/>
      <path class="cls-4" d="M571.5,727.23h12.07v97.42H571.5Z" transform="translate(-114.21 -95.09)"/>
      <path class="cls-4" d="M610.6,793.64c.28,16.33,10.71,23.06,22.78,23.06,8.65,0,13.86-1.51,18.39-3.44l2.06,8.65c-4.25,1.92-11.53,4.12-22.09,4.12-20.45,0-32.66-13.45-32.66-33.49s11.8-35.81,31.15-35.81c21.68,0,27.44,19.07,27.44,31.29a44.87,44.87,0,0,1-.41,5.62ZM646,785c.13-7.69-3.16-19.63-16.74-19.63-12.22,0-17.57,11.26-18.53,19.63Z" transform="translate(-114.21 -95.09)"/>
    </g>
  </g>
</svg>
