<svg xmlns="http://www.w3.org/2000/svg" viewBox="0 0 795.62 832.32">
  <defs>
    <style>
      .cls-1 {
        fill: none;
      }

      .cls-2 {
        fill: #f3a134;
      }

      .cls-3 {
        fill: #f5f5fb;
      }

      .cls-4 {
        fill: #fff;
      }
    </style>
  </defs>
  <title>FilesJSON</title>
  <g id="Layer_1" data-name="Layer 1">
    <rect class="cls-1" width="795.62" height="832.32"/>
  </g>
  <g id="FilesJSON">
    <g>
      <path class="cls-2" d="M148.58,126.34l3.3,650.08a15.06,15.06,0,0,0,7.42,14,15.31,15.31,0,0,0,12.38.83h556a20,20,0,0,0,14-4.95,19.42,19.42,0,0,0,5.78-9.9v-429l-245.84,4.95-6.6-244.19-315.14-5c-1.08-.36-11.79-3.67-21.45,3.3C148.57,113.68,148.56,125.29,148.58,126.34Z" transform="translate(-114.21 -95.09)"/>
      <path class="cls-2" d="M552,116.44q.4,91.16.82,182.32l180.67,1.65Q642.75,208.42,552,116.44Z" transform="translate(-114.21 -95.09)"/>
    </g>
    <path class="cls-3" d="M205.4,181.47l3.3,650.08a15,15,0,0,0,7.42,14,15.31,15.31,0,0,0,12.38.83h556a20,20,0,0,0,14-4.95,19.42,19.42,0,0,0,5.78-9.9v-429c.38-117.28-.33-203.07-1.51-220.26-.27-3.94-1.53-11-6.74-16.51-6.51-6.91-15.94-7.79-19.29-8.1-17.74-1.67-238.63-1.29-540,.68-1.08-.35-11.79-3.67-21.45,3.3C205.39,168.81,205.38,180.43,205.4,181.47Z" transform="translate(-114.21 -95.09)"/>
    <g>
      <path class="cls-2" d="M217.87,195.64l3.3,650.08a15.08,15.08,0,0,0,7.43,14,15.33,15.33,0,0,0,12.37.83H797a20,20,0,0,0,14-5,19.5,19.5,0,0,0,5.78-9.9v-429L571,421.68l-6.6-244.19-315.14-5c-1.08-.36-11.78-3.67-21.45,3.3C217.87,183,217.86,194.59,217.87,195.64Z" transform="translate(-114.21 -95.09)"/>
      <path class="cls-2" d="M621.29,185.74q.4,91.15.82,182.32l180.67,1.64Z" transform="translate(-114.21 -95.09)"/>
    </g>
    <path class="cls-3" d="M264.8,240.87,268.1,891a15.06,15.06,0,0,0,7.42,14,15.31,15.31,0,0,0,12.38.83h556a20,20,0,0,0,14-4.95,19.42,19.42,0,0,0,5.78-9.9V462c.37-117.28-.33-203.07-1.51-220.26-.27-3.94-1.53-11-6.74-16.51-6.51-6.91-15.94-7.79-19.29-8.11-17.74-1.66-238.63-1.28-540,.69-1.08-.36-11.79-3.67-21.45,3.3C264.79,228.21,264.78,239.82,264.8,240.87Z" transform="translate(-114.21 -95.09)"/>
    <g>
      <path class="cls-2" d="M278.92,260l3.3,650.08a15.09,15.09,0,0,0,7.43,14,15.27,15.27,0,0,0,12.37.82h556a19.92,19.92,0,0,0,14-4.95,19.35,19.35,0,0,0,5.77-9.9v-429L632,486q-3.09-125.19-6.19-250.38l-315.55,1.23c-1.08-.35-11.79-3.66-21.45,3.3C278.91,247.33,278.9,258.94,278.92,260Z" transform="translate(-114.21 -95.09)"/>
      <path class="cls-2" d="M682.34,250.08q.4,91.17.82,182.32l180.67,1.65Q773.08,342.07,682.34,250.08Z" transform="translate(-114.21 -95.09)"/>
    </g>
    <g>
      <path class="cls-4" d="M336.76,669.86c18.95,0,21.62-10.41,21.62-19.75,0-7.48-1.07-15-2.13-22.42s-2.14-14.69-2.14-22.16c0-24.56,16-35,38.71-35h5.6v14.69h-4.8c-15.75,0-21.09,8.54-21.09,23a116.47,116.47,0,0,0,1.87,18.95,124.4,124.4,0,0,1,1.87,20.29c.26,17.08-7.21,25.62-19.22,28.83v.53c12,2.94,19.48,12,19.22,29.09a121.65,121.65,0,0,1-1.87,20.29,119.72,119.72,0,0,0-1.87,19.22c0,15,6.14,23.22,21.09,23.22h4.8V783.3h-5.6c-22.16,0-38.71-9.61-38.71-36.57,0-7.2,1.07-14.68,2.14-21.88s2.13-14.42,2.13-21.63c0-8.27-2.67-19.75-21.62-19.75Z" transform="translate(-114.21 -95.09)"/>
      <path class="cls-4" d="M815.3,683.47c-18.95,0-21.62,11.48-21.62,19.75,0,7.21,1.07,14.42,2.14,21.63S798,739.53,798,746.73c0,27-16.82,36.57-38.7,36.57h-5.61V768.62h4.54c15-.27,21.35-8.27,21.35-23.22,0-6.41-1.06-12.55-1.86-19.22a121,121,0,0,1-2.14-20.29c0-17.08,7.47-26.15,19.22-29.09v-.53c-11.75-3.21-19.22-11.75-19.22-28.83,0-7.21,1.07-13.61,2.14-20.29.8-6.4,1.86-12.81,1.86-18.95,0-14.41-5.6-22.69-21.08-23h-4.81V570.56H759c22.69,0,39,10.41,39,35,0,7.47-1.07,14.68-2.13,22.16s-2.14,14.94-2.14,22.42c0,9.34,2.67,19.75,21.62,19.75Z" transform="translate(-114.21 -95.09)"/>
    </g>
    <g>
      <path class="cls-4" d="M454.05,635.45H464.7v55.17c0,21.9-10.77,28.63-25,28.63a34.22,34.22,0,0,1-11.38-2l1.59-8.68a25.51,25.51,0,0,0,8.93,1.59c9.54,0,15.17-4.28,15.17-20.43Z" transform="translate(-114.21 -95.09)"/>
      <path class="cls-4" d="M481,704.94a37.76,37.76,0,0,0,19.08,5.38c10.89,0,17.25-5.75,17.25-14.07,0-7.71-4.4-12.11-15.54-16.39C488.31,675.09,480,668.11,480,656.49c0-12.85,10.64-22.39,26.67-22.39,8.44,0,14.56,2,18.23,4L522,646.82a33,33,0,0,0-15.66-3.91c-11.25,0-15.54,6.73-15.54,12.36,0,7.7,5,11.5,16.4,15.9,13.94,5.38,21,12.11,21,24.22,0,12.73-9.42,23.74-28.87,23.74-8,0-16.64-2.33-21.05-5.26Z" transform="translate(-114.21 -95.09)"/>
      <path class="cls-4" d="M613.22,675.82c0,28.38-17.25,43.43-38.3,43.43-21.77,0-37.07-16.88-37.07-41.84,0-26.18,16.28-43.31,38.3-43.31C598.66,634.1,613.22,651.35,613.22,675.82Zm-64,1.35c0,17.61,9.54,33.4,26.31,33.4S602,695,602,676.31c0-16.39-8.56-33.52-26.3-33.52S549.23,659.06,549.23,677.17Z" transform="translate(-114.21 -95.09)"/>
      <path class="cls-4" d="M627,717.91V635.45h11.62l26.43,41.72A231.86,231.86,0,0,1,679.89,704l.25-.12c-1-11-1.22-21.05-1.22-33.89v-34.5h10v82.46H678.18L652,676.06a261.33,261.33,0,0,1-15.42-27.52l-.36.12c.61,10.4.85,20.31.85,34v35.24Z" transform="translate(-114.21 -95.09)"/>
    </g>
  </g>
</svg>
