<svg xmlns="http://www.w3.org/2000/svg" viewBox="0 0 795.62 834.15">
  <defs>
    <style>
      .cls-1 {
        fill: none;
      }

      .cls-2 {
        fill: #6ccce0;
      }

      .cls-3 {
        fill: #f5f5fb;
      }

      .cls-4 {
        fill: #fff;
      }
    </style>
  </defs>
  <title>FilesFixedLength</title>
  <g id="Layer_1" data-name="Layer 1">
    <rect class="cls-1" width="795.62" height="832.32"/>
  </g>
  <g id="FilesFixedLength">
    <g>
      <path class="cls-2" d="M143,119.59l3.35,658.32a15.24,15.24,0,0,0,7.52,14.2,15.46,15.46,0,0,0,12.53.84H729.43a20.19,20.19,0,0,0,14.2-5,19.7,19.7,0,0,0,5.85-10V343.49l-249,5q-3.34-123.65-6.68-247.29l-319.14-5c-1.09-.36-11.94-3.71-21.72,3.34C143,106.78,142.94,118.53,143,119.59Z" transform="translate(-114.21 -95.09)"/>
      <path class="cls-2" d="M551.48,109.57l.84,184.63,183,1.67Z" transform="translate(-114.21 -95.09)"/>
    </g>
    <path class="cls-3" d="M200.5,175.42l3.34,658.32a15.26,15.26,0,0,0,7.52,14.2,15.46,15.46,0,0,0,12.53.84H787a20.19,20.19,0,0,0,14.2-5,19.62,19.62,0,0,0,5.85-10V399.32c.38-118.77-.33-205.65-1.53-223-.27-4-1.55-11.12-6.82-16.72-6.6-7-16.15-7.89-19.53-8.21-18-1.68-241.66-1.3-546.9.69-1.09-.36-11.93-3.71-21.72,3.34C200.49,162.61,200.48,174.37,200.5,175.42Z" transform="translate(-114.21 -95.09)"/>
    <g>
      <path class="cls-2" d="M213.13,189.77l3.34,658.32a15.28,15.28,0,0,0,7.52,14.2,15.55,15.55,0,0,0,12.53.84H799.6a20.24,20.24,0,0,0,14.21-5,19.64,19.64,0,0,0,5.84-10V413.66l-248.95,5L564,171.39l-319.13-5c-1.1-.36-11.94-3.72-21.72,3.34C213.12,177,213.11,188.71,213.13,189.77Z" transform="translate(-114.21 -95.09)"/>
      <path class="cls-2" d="M621.66,179.74q.42,92.32.83,184.63l183,1.67Z" transform="translate(-114.21 -95.09)"/>
    </g>
    <path class="cls-3" d="M260.65,235.57l3.42,658.32a15.2,15.2,0,0,0,7.69,14.21,16.21,16.21,0,0,0,12.83.83H860.85a21,21,0,0,0,14.54-5,19.52,19.52,0,0,0,6-10V459.47c.39-118.77-.34-205.65-1.56-223.05-.28-4-1.59-11.12-7-16.72-6.75-7-16.52-7.89-20-8.21-18.39-1.68-247.31-1.3-559.69.69-1.12-.36-12.22-3.71-22.23,3.34C260.64,222.76,260.63,234.52,260.65,235.57Z" transform="translate(-114.21 -95.09)"/>
    <g>
      <path class="cls-2" d="M275,254.93l3.34,658.32a15.28,15.28,0,0,0,7.52,14.2,15.46,15.46,0,0,0,12.53.84H861.43a20.21,20.21,0,0,0,14.2-5,19.77,19.77,0,0,0,5.85-10V478.83l-249,5-6.27-253.55L306.7,231.54c-1.09-.36-11.94-3.72-21.72,3.34C275,242.12,274.93,253.87,275,254.93Z" transform="translate(-114.21 -95.09)"/>
      <path class="cls-2" d="M683.48,244.91q.42,92.31.83,184.63l183,1.67Z" transform="translate(-114.21 -95.09)"/>
    </g>
    <g>
      <path class="cls-4" d="M379.26,653.24V556.49h66.32v16.37H398.79v22.9h40.39v16.36H398.79v41.12Z" transform="translate(-114.21 -95.09)"/>
      <path class="cls-4" d="M461.55,573.65V556.49H480.1v17.16Zm0,79.59V583.15H480.1v70.09Z" transform="translate(-114.21 -95.09)"/>
      <path class="cls-4" d="M490.19,653.24l25.28-36.1-24.22-34h22.63l12.41,19.27,13.07-19.27h21.78l-23.76,33.2,25.93,36.89H540.55l-14.26-21.71-14.38,21.71Z" transform="translate(-114.21 -95.09)"/>
      <path class="cls-4" d="M614.86,630.93,633.33,634q-3.55,10.15-11.25,15.47t-19.24,5.31q-18.27,0-27.05-11.94-6.93-9.57-6.93-24.16,0-17.41,9.1-27.28t23-9.87q15.63,0,24.68,10.33t8.64,31.64H587.86q.21,8.25,4.49,12.84A14,14,0,0,0,603,641a11.37,11.37,0,0,0,7.33-2.37Q613.34,636.2,614.86,630.93Zm1-18.74q-.2-8.06-4.16-12.24a13.38,13.38,0,0,0-19.66.23q-4,4.43-3.9,12Z" transform="translate(-114.21 -95.09)"/>
      <path class="cls-4" d="M713.71,653.24H696.49v-10.3a27.84,27.84,0,0,1-10.13,8.95,26.07,26.07,0,0,1-11.78,2.93q-12.08,0-20.69-9.73t-8.61-27.16q0-17.82,8.38-27.09a27.33,27.33,0,0,1,21.18-9.27q11.74,0,20.33,9.77V556.49h18.54Zm-49.49-36.56q0,11.22,3.1,16.23,4.48,7.26,12.54,7.26a13.64,13.64,0,0,0,10.89-5.44q4.49-5.44,4.49-16.27,0-12.08-4.36-17.39a13.78,13.78,0,0,0-11.15-5.31A14,14,0,0,0,668.67,601Q664.22,606.25,664.22,616.68Z" transform="translate(-114.21 -95.09)"/>
      <path class="cls-4" d="M349.73,815.43v-96h19.53v79.65h48.57v16.31Z" transform="translate(-114.21 -95.09)"/>
      <path class="cls-4" d="M472.21,793.12l18.48,3.1q-3.57,10.17-11.25,15.48T460.2,817q-18.29,0-27.06-12-6.93-9.55-6.93-24.15,0-17.42,9.11-27.29t23-9.86q15.64,0,24.68,10.32t8.65,31.65H445.22q.19,8.25,4.49,12.83a14,14,0,0,0,10.69,4.59,11.37,11.37,0,0,0,7.32-2.37Q470.69,798.4,472.21,793.12Zm1.06-18.74q-.21-8.05-4.16-12.24a12.74,12.74,0,0,0-9.64-4.19,12.87,12.87,0,0,0-10,4.42q-4,4.41-3.89,12Z" transform="translate(-114.21 -95.09)"/>
      <path class="cls-4" d="M570.54,815.43H552V779.66q0-11.35-1.19-14.69a10.34,10.34,0,0,0-3.86-5.18,11.05,11.05,0,0,0-6.44-1.84,14.92,14.92,0,0,0-8.64,2.63,13.36,13.36,0,0,0-5.25,7q-1.41,4.35-1.42,16.1v31.75H506.66V745.34h17.22v10.3q9.18-11.88,23.1-11.88A27.74,27.74,0,0,1,558.2,746a18.75,18.75,0,0,1,7.69,5.64,20.51,20.51,0,0,1,3.63,7.79,58,58,0,0,1,1,12.47Z" transform="translate(-114.21 -95.09)"/>
      <path class="cls-4" d="M587.63,820l21.19,2.58c.35,2.46,1.16,4.16,2.44,5.08q2.64,2,8.31,2,7.26,0,10.89-2.18a9,9,0,0,0,3.7-4.68q.86-2.31.86-8.52V804.08q-8.32,11.34-21,11.35-14.12,0-22.37-11.95Q585.2,794,585.19,780q0-17.62,8.48-26.93a27.38,27.38,0,0,1,21.09-9.3q13,0,21.45,11.41v-9.83h17.35v62.89q0,12.4-2,18.55a23,23,0,0,1-5.75,9.63,25.4,25.4,0,0,1-9.86,5.48,52,52,0,0,1-15.61,2q-17.82,0-25.27-6.11a19.12,19.12,0,0,1-7.46-15.47Q587.57,821.36,587.63,820Zm16.57-41.11q0,11.16,4.32,16.33a13.36,13.36,0,0,0,10.66,5.19,14.74,14.74,0,0,0,11.48-5.32q4.7-5.31,4.69-15.74,0-10.89-4.49-16.17A14.28,14.28,0,0,0,619.51,758a13.66,13.66,0,0,0-11,5.18Q604.2,768.31,604.2,778.93Z" transform="translate(-114.21 -95.09)"/>
      <path class="cls-4" d="M704.05,745.34v14.78H691.38v28.25q0,8.58.36,10a4.08,4.08,0,0,0,1.65,2.34,5.2,5.2,0,0,0,3.13.92,23.93,23.93,0,0,0,7.46-1.78l1.58,14.39A36.8,36.8,0,0,1,690.91,817a23.3,23.3,0,0,1-9-1.68A13.18,13.18,0,0,1,676,811a17,17,0,0,1-2.61-7.22,89.14,89.14,0,0,1-.6-13.07V760.12h-8.51V745.34h8.51V731.42l18.62-10.83v24.75Z" transform="translate(-114.21 -95.09)"/>
      <path class="cls-4" d="M735.39,718.68v35.57q9-10.5,21.45-10.49a27.29,27.29,0,0,1,11.55,2.37,18.9,18.9,0,0,1,7.75,6.07,22.11,22.11,0,0,1,3.57,8.19,72.87,72.87,0,0,1,1,13.92v41.12H762.12v-37q0-11-1.06-14a9.17,9.17,0,0,0-3.72-4.72,12.07,12.07,0,0,0-6.7-1.74,15.33,15.33,0,0,0-8.25,2.24,13,13,0,0,0-5.31,6.76q-1.7,4.53-1.69,13.37v35.11H716.85V718.68Z" transform="translate(-114.21 -95.09)"/>
    </g>
  </g>
</svg>
