<?xml version="1.0" encoding="UTF-8"?>
<svg version="1.1" xmlns="http://www.w3.org/2000/svg" width="512" height="512">
<path d="M0 0 C1.07933807 -0.00570007 2.15867615 -0.01140015 3.27072144 -0.01727295 C5.54814697 -0.02666439 7.82558574 -0.03323343 10.10302734 -0.03710938 C13.4973296 -0.04671272 16.89099816 -0.07775087 20.28515625 -0.109375 C39.69373879 -0.20373526 58.95036689 1.33411605 77.9296875 5.578125 C78.91702881 5.79380127 79.90437012 6.00947754 80.92163086 6.23168945 C83.76357815 6.86613311 86.59764715 7.52595453 89.4296875 8.203125 C90.19684082 8.38568848 90.96399414 8.56825195 91.75439453 8.75634766 C117.8538174 15.18182503 145.21049046 27.7885001 160.9296875 50.42578125 C165.13301744 58.20850935 167.02287961 64.87653394 166.93762207 73.71786499 C166.94698201 75.23327879 166.94698201 75.23327879 166.95653105 76.77930701 C166.9723889 80.13875868 166.95988496 83.49747752 166.94726562 86.85693359 C166.95268972 89.27553732 166.95981399 91.69413774 166.96850586 94.11273193 C166.98481547 99.98291727 166.98247984 105.85291464 166.9708553 111.72309463 C166.96180208 116.49305249 166.96060509 121.26295302 166.96495056 126.03291702 C166.96556349 126.7131461 166.96617643 127.39337517 166.96680793 128.09421725 C166.96808688 129.476241 166.96938373 130.85826473 166.9706983 132.24028845 C166.98208473 145.17669757 166.96901819 158.112993 166.94749683 171.04938348 C166.92960334 182.14902722 166.93275215 193.24850375 166.95117188 204.34814453 C166.97257117 217.24924681 166.98101174 230.15024986 166.96872282 243.0513674 C166.96744865 244.42632078 166.96619116 245.80127417 166.96495056 247.17622757 C166.96402491 248.19091517 166.96402491 248.19091517 166.96308056 249.22610151 C166.95962662 253.99331205 166.96545639 258.76045959 166.97486877 263.52766037 C166.98724818 269.93815469 166.97845436 276.34840686 166.95529175 282.75887299 C166.94999049 285.11475472 166.95154248 287.47066301 166.96034241 289.82653427 C166.97122436 293.03481541 166.95762289 296.24207158 166.93762207 299.45028687 C166.9510064 300.85833794 166.9510064 300.85833794 166.96466112 302.29483449 C166.8882712 308.58349772 166.8882712 308.58349772 164.52294159 311.77947426 C162.26135291 313.31761166 161.13907169 313.74545913 158.4296875 313.703125 C157.4396875 313.71859375 157.4396875 313.71859375 156.4296875 313.734375 C153.35191173 312.91684081 152.34419404 311.7704597 150.4296875 309.203125 C149.80653188 306.0182379 149.82474212 302.86276161 149.8203125 299.625 C149.80377625 298.6984259 149.78723999 297.77185181 149.77020264 296.81719971 C149.72168024 293.862441 149.70034226 290.90819711 149.6796875 287.953125 C149.65153137 285.94789071 149.62160445 283.94268044 149.58984375 281.9375 C149.51592005 277.02608404 149.46637126 272.11495459 149.4296875 267.203125 C148.67437744 267.78900391 147.91906738 268.37488281 147.14086914 268.97851562 C123.21163604 287.27678907 94.91371155 296.2981225 65.4296875 301.203125 C64.51751465 301.36538574 63.6053418 301.52764648 62.66552734 301.69482422 C30.99520467 307.13316246 -4.95554224 306.8268794 -36.5703125 301.203125 C-37.53791504 301.04215332 -38.50551758 300.88118164 -39.50244141 300.71533203 C-69.16735856 295.67844103 -96.72411984 285.70013972 -120.5703125 267.203125 C-120.62000366 273.44700988 -120.65616949 279.69077788 -120.68017578 285.93481445 C-120.69019094 288.05592862 -120.70380696 290.17702913 -120.72119141 292.2980957 C-120.74563775 295.35892116 -120.75684075 298.41956297 -120.765625 301.48046875 C-120.78110886 302.8872715 -120.78110886 302.8872715 -120.79690552 304.32249451 C-120.79891808 316.31636359 -118.02181566 324.14771401 -109.859375 333.07421875 C-81.9188888 359.48956924 -35.09973864 365.33225483 1.4921875 366.828125 C2.62599854 366.87606201 3.75980957 366.92399902 4.92797852 366.97338867 C11.84690443 367.20995301 18.69461354 367.18092743 25.609375 366.90234375 C26.7651429 366.85744812 26.7651429 366.85744812 27.94425964 366.81164551 C31.7511207 366.65874447 35.55405993 366.47759781 39.35766602 366.25830078 C40.75534698 366.19381125 42.15305116 366.12982211 43.55078125 366.06640625 C45.39820923 365.96259644 45.39820923 365.96259644 47.28295898 365.85668945 C50.4296875 366.203125 50.4296875 366.203125 52.82421875 368.07299805 C55.14928691 371.15788547 55.06464673 373.32639968 54.8671875 377.078125 C54.4296875 379.203125 54.4296875 379.203125 52.4921875 381.703125 C45.5107245 385.12261708 36.89548572 384.38315536 29.265625 384.44140625 C28.20770248 384.4512001 27.14977997 384.46099396 26.05979919 384.47108459 C-18.72092605 384.80005509 -63.603275 381.45504318 -103.5703125 359.203125 C-104.56417969 358.65011719 -105.55804688 358.09710938 -106.58203125 357.52734375 C-120.73015312 349.07076306 -132.59439251 337.18256228 -137.5703125 321.203125 C-138.09476056 317.55179688 -138.11638979 313.97111815 -138.0849762 310.28665161 C-138.09192172 309.23301764 -138.09886725 308.17938368 -138.10602325 307.09382141 C-138.12422003 303.58723031 -138.11404893 300.08132137 -138.10375977 296.57470703 C-138.11082193 294.05085751 -138.1195682 291.52701222 -138.12986755 289.00317383 C-138.15000761 282.87361503 -138.15139717 276.74430548 -138.14324201 270.61472644 C-138.13692633 265.62935179 -138.13809337 260.64403118 -138.14451408 255.65865707 C-138.14541574 254.94743345 -138.14631739 254.23620982 -138.14724637 253.50343397 C-138.1490977 252.05829207 -138.15096026 250.61315018 -138.15283393 249.16800831 C-138.16939034 235.63429395 -138.16071198 222.100684 -138.14384835 208.56697594 C-138.12915684 196.20516186 -138.14377578 183.84359096 -138.17261852 171.4818082 C-138.20206347 158.76650766 -138.21296975 146.05131914 -138.20343632 133.33598602 C-138.20241384 131.89573218 -138.20141923 130.45547833 -138.2004528 129.01522446 C-138.19997641 128.30672243 -138.19950002 127.5982204 -138.1990092 126.86824862 C-138.19685159 121.89438262 -138.20661428 116.92062348 -138.22122383 111.94678116 C-138.24064785 105.24070064 -138.23358157 98.53514203 -138.20902443 91.82905579 C-138.20402695 89.37332762 -138.20747847 86.91756491 -138.22017288 84.46186447 C-138.30158661 67.35416096 -137.38885228 55.43475106 -125.5703125 42.203125 C-125.05984375 41.61144531 -124.549375 41.01976562 -124.0234375 40.41015625 C-95.28344356 9.32258855 -40.08581143 0.16997973 0 0 Z M-112.4375 52.9609375 C-118.87116011 59.72452889 -120.96928569 65.88794447 -120.8359375 75.14453125 C-120.07039847 83.959488 -113.82953603 90.40167872 -107.5703125 96.203125 C-67.95316485 128.94778233 -2.97309456 131.25451777 45.609375 126.640625 C78.46460819 123.22127906 121.57620614 115.67502075 143.83984375 88.375 C149.11851257 81.16384554 150.59092908 75.22413855 149.4296875 66.203125 C146.16981795 54.07036548 133.97957053 45.44476398 123.65917969 39.42333984 C60.59693864 4.90898584 -57.29533771 1.71950695 -112.4375 52.9609375 Z M-121.5703125 106.203125 C-121.62129682 112.58940191 -121.65616482 118.97562572 -121.68017578 125.36206055 C-121.69019263 127.53167685 -121.70380992 129.7012798 -121.72119141 131.87084961 C-121.74563021 135.00117301 -121.75683907 138.13131688 -121.765625 141.26171875 C-121.77594757 142.22146103 -121.78627014 143.18120331 -121.79690552 144.17002869 C-121.79891023 156.38278574 -118.99254404 164.24895104 -110.63671875 173.296875 C-77.66861646 204.70693843 -20.55792736 208.85586455 22.421875 208.1484375 C61.56109396 207.02421157 109.91896681 200.99717672 139.87109375 172.9140625 C148.9333012 163.20097827 150.59602665 154.53233846 150.52734375 141.5546875 C150.5259288 140.54215912 150.52451385 139.52963074 150.52305603 138.48641968 C150.51747893 135.26695749 150.50493062 132.04756601 150.4921875 128.828125 C150.48716954 126.63932392 150.48260715 124.45052175 150.47851562 122.26171875 C150.467517 116.90883023 150.4508017 111.55598267 150.4296875 106.203125 C147.425261 108.20233948 144.42590096 110.20572049 141.44921875 112.24609375 C118.35664011 127.68802514 92.62785873 135.50846497 65.4296875 140.203125 C64.51026367 140.36828613 63.59083984 140.53344727 62.64355469 140.70361328 C30.98056311 146.13428246 -4.96444032 145.82529657 -36.5703125 140.203125 C-37.53791504 140.04215332 -38.50551758 139.88118164 -39.50244141 139.71533203 C-67.63033267 134.93941704 -96.11558165 125.90743477 -118.5859375 107.78515625 C-120.27766111 106.0992283 -120.27766111 106.0992283 -121.5703125 106.203125 Z M-121.5703125 186.203125 C-121.62129682 192.58940191 -121.65616482 198.97562572 -121.68017578 205.36206055 C-121.69019263 207.53167685 -121.70380992 209.7012798 -121.72119141 211.87084961 C-121.74563021 215.00117301 -121.75683907 218.13131688 -121.765625 221.26171875 C-121.77594757 222.22146103 -121.78627014 223.18120331 -121.79690552 224.17002869 C-121.79891023 236.38278574 -118.99254404 244.24895104 -110.63671875 253.296875 C-77.66861646 284.70693843 -20.55792736 288.85586455 22.421875 288.1484375 C61.56109396 287.02421157 109.91896681 280.99717672 139.87109375 252.9140625 C148.9333012 243.20097827 150.59602665 234.53233846 150.52734375 221.5546875 C150.5259288 220.54215912 150.52451385 219.52963074 150.52305603 218.48641968 C150.51747893 215.26695749 150.50493062 212.04756601 150.4921875 208.828125 C150.48716954 206.63932392 150.48260715 204.45052175 150.47851562 202.26171875 C150.467517 196.90883023 150.4508017 191.55598267 150.4296875 186.203125 C147.425261 188.20233948 144.42590096 190.20572049 141.44921875 192.24609375 C118.35664011 207.68802514 92.62785873 215.50846497 65.4296875 220.203125 C64.51026367 220.36828613 63.59083984 220.53344727 62.64355469 220.70361328 C30.98056311 226.13428246 -4.96444032 225.82529657 -36.5703125 220.203125 C-37.53791504 220.04215332 -38.50551758 219.88118164 -39.50244141 219.71533203 C-67.63033267 214.93941704 -96.11558165 205.90743477 -118.5859375 187.78515625 C-120.27766111 186.0992283 -120.27766111 186.0992283 -121.5703125 186.203125 Z " fill="#000000" transform="translate(177.5703125,39.796875)"/>
<path d="M0 0 C8.43193079 5.0279291 13.37209383 11.85129622 16.109375 21.2578125 C16.36334229 24.34846497 16.36334229 24.34846497 16.36816406 27.67114258 C16.37446838 28.92296829 16.38077271 30.17479401 16.38726807 31.46455383 C16.38368674 32.81881858 16.37958439 34.17308203 16.375 35.52734375 C16.37634935 36.93210416 16.37829212 38.33686411 16.38079834 39.74162292 C16.38373983 42.68106548 16.37948542 45.62038613 16.37011719 48.55981445 C16.35875479 52.30524632 16.36526777 56.05039046 16.37726212 59.79581165 C16.38453422 62.69652929 16.38216787 65.59718022 16.37700653 68.49790001 C16.37568313 69.87763186 16.37727121 71.25737 16.38196564 72.6370945 C16.41403063 84.71423596 16.41403063 84.71423596 15.00292969 90.5065918 C13.68853986 94.18523343 13.68853986 94.18523343 15.546875 96.9453125 C16.3203125 98.09 16.3203125 98.09 17.109375 99.2578125 C17.03548575 102.87838557 16.54795903 104.67825503 14.359375 107.5703125 C11.74647124 109.52999032 10.37808743 110.17998601 7.109375 110.2578125 C5.748125 109.484375 5.748125 109.484375 4.359375 108.6953125 C0.53568703 107.0040659 -1.1544055 107.6368372 -5.07421875 108.69140625 C-14.71348509 110.62995496 -25.31395461 110.37204929 -33.890625 105.2578125 C-41.23667454 100.37008662 -45.44324542 93.64804448 -47.890625 85.2578125 C-48.15805054 82.17388916 -48.15805054 82.17388916 -48.18115234 78.86035156 C-48.19391205 77.61175354 -48.20667175 76.36315552 -48.21981812 75.07672119 C-48.22287675 73.72562822 -48.22510399 72.37453315 -48.2265625 71.0234375 C-48.23299951 69.62107206 -48.23972853 68.21870793 -48.24673462 66.81634521 C-48.25868076 63.88111259 -48.26241835 60.94599739 -48.26123047 58.01074219 C-48.26102775 54.27416129 -48.28829232 50.53834495 -48.32277489 46.80194473 C-48.34516406 43.90546301 -48.34906433 41.00916157 -48.34801102 38.11260223 C-48.35035039 36.73646163 -48.35907873 35.36031476 -48.37467575 33.98426056 C-48.48604782 23.14114878 -47.22347238 13.9582602 -39.59375 5.7890625 C-28.99673947 -3.73852495 -12.95346121 -6.21592266 0 0 Z M-26.890625 18.2578125 C-30.94987957 23.4141629 -31.99775159 27.64683296 -32.05175781 34.08886719 C-32.06136536 35.0204364 -32.0709729 35.95200562 -32.08087158 36.9118042 C-32.08512146 37.90770569 -32.08937134 38.90360718 -32.09375 39.9296875 C-32.09945007 40.96667786 -32.10515015 42.00366821 -32.11102295 43.07208252 C-32.12045553 45.26419052 -32.127 47.4563126 -32.13085938 49.6484375 C-32.14055004 52.98202605 -32.17158443 56.31499388 -32.203125 59.6484375 C-32.20965728 61.78385053 -32.21490686 63.91926794 -32.21875 66.0546875 C-32.2310968 67.04249207 -32.2434436 68.03029663 -32.25616455 69.04803467 C-32.23560259 75.51704922 -31.9672166 82.81654567 -27.4385376 87.88201904 C-22.73873374 91.89711394 -19.97152412 92.37042174 -13.890625 92.2578125 C-14.47070312 91.60425781 -14.47070312 91.60425781 -15.0625 90.9375 C-23.92100571 80.80722862 -23.92100571 80.80722862 -23.828125 76.0703125 C-22.85540952 73.15216605 -22.44276516 71.92990433 -19.890625 70.2578125 C-17.078125 69.3203125 -17.078125 69.3203125 -13.890625 69.2578125 C-9.03297344 71.84166971 -4.99254742 75.61705295 -0.890625 79.2578125 C0.29562891 76.88530469 0.2484948 75.41459362 0.27050781 72.76733398 C0.28011536 71.83553818 0.2897229 70.90374237 0.29962158 69.94371033 C0.30387146 68.93232498 0.30812134 67.92093964 0.3125 66.87890625 C0.32105011 65.31705345 0.32105011 65.31705345 0.32977295 63.72364807 C0.33923481 61.51361103 0.34576162 59.30355981 0.34960938 57.09350586 C0.35926582 53.73330473 0.39025792 50.37372806 0.421875 47.01367188 C0.42841001 44.86458696 0.43365852 42.71549767 0.4375 40.56640625 C0.4498468 39.56919052 0.4621936 38.57197479 0.47491455 37.54454041 C0.45448231 31.05041461 0.20649253 23.72115953 -4.3427124 18.63401794 C-9.08881643 14.57815412 -12.28696039 13.90182117 -18.3515625 13.98046875 C-22.11522902 14.39157694 -24.10852687 15.7406761 -26.890625 18.2578125 Z " fill="#000000" transform="translate(375.890625,362.7421875)"/>
<path d="M0 0 C7.50545645 4.47547589 11.69754597 10.20445643 15.421875 18.0078125 C16.48217571 23.02014314 16.94309879 28.18481518 16.109375 33.2578125 C14.26839697 35.68271308 13.07521511 37.00126122 10.109375 37.7890625 C9.449375 37.77875 8.789375 37.7684375 8.109375 37.7578125 C7.449375 37.768125 6.789375 37.7784375 6.109375 37.7890625 C3.17639118 37.00998867 1.98653495 35.60823947 0.109375 33.2578125 C-0.796875 30.63671875 -0.796875 30.63671875 -1.390625 27.8203125 C-2.47630872 23.41889202 -3.5003182 20.44264616 -6.890625 17.2578125 C-11.3804419 14.55623102 -15.78796531 14.60486553 -20.890625 15.2578125 C-25.29671243 17.42080087 -28.0893747 19.65461729 -29.890625 24.2578125 C-30.57488557 29.30106634 -30.4646112 33.08858134 -28.203125 37.6953125 C-23.80749838 42.566142 -19.40402795 43.7535971 -13.078125 44.6953125 C-3.6487521 46.29210208 4.53111443 49.13232813 10.51953125 57.14453125 C16.30251951 65.9960439 17.16180246 74.93086802 16.109375 85.2578125 C14.15699412 93.83275809 9.41147628 100.27656662 2.109375 105.0703125 C-6.05698952 110.05519751 -14.65821688 109.994196 -23.890625 109.2578125 C-27.29274778 108.41089085 -29.95275372 107.1498016 -32.890625 105.2578125 C-33.95023437 104.60425781 -33.95023437 104.60425781 -35.03125 103.9375 C-41.64939119 99.45187097 -46.22127862 93.14926812 -47.890625 85.2578125 C-48.83309023 74.49920943 -48.83309023 74.49920943 -46.1171875 70.921875 C-43.76233862 69.16193531 -42.7793085 68.71267682 -39.890625 68.7578125 C-39.230625 68.7475 -38.570625 68.7371875 -37.890625 68.7265625 C-34.95764118 69.50563633 -33.76778495 70.90738553 -31.890625 73.2578125 C-30.984375 75.87890625 -30.984375 75.87890625 -30.390625 78.6953125 C-29.30494128 83.09673298 -28.2809318 86.07297884 -24.890625 89.2578125 C-20.4008081 91.95939398 -15.99328469 91.91075947 -10.890625 91.2578125 C-6.48453757 89.09482413 -3.6918753 86.86100771 -1.890625 82.2578125 C-1.20636443 77.21455866 -1.3166388 73.42704366 -3.578125 68.8203125 C-7.97375162 63.949483 -12.37722205 62.7620279 -18.703125 61.8203125 C-28.1324979 60.22352292 -36.31236443 57.38329687 -42.30078125 49.37109375 C-48.08376951 40.5195811 -48.94305246 31.58475698 -47.890625 21.2578125 C-45.93824412 12.68286691 -41.19272628 6.23905838 -33.890625 1.4453125 C-24.13209154 -4.51145897 -10.31095059 -4.94787226 0 0 Z " fill="#000000" transform="translate(295.890625,362.7421875)"/>
<path d="M0 0 C0.66 -0.0103125 1.32 -0.020625 2 -0.03125 C5.05073452 0.77910136 6.09387239 1.97334946 8 4.5 C8.58305145 7.46516587 8.50532764 10.38633078 8.45410156 13.39941406 C8.45468567 14.29732666 8.45526978 15.19523926 8.45587158 16.12036133 C8.45308668 19.08584359 8.42197534 22.05031851 8.390625 25.015625 C8.38316406 27.07256521 8.37747044 29.12951254 8.37347412 31.1864624 C8.35820628 36.59862922 8.31891426 42.01036621 8.2746582 47.42236328 C8.23373049 52.94557887 8.21546843 58.46886396 8.1953125 63.9921875 C8.15242136 74.82831378 8.08415587 85.66412114 8 96.5 C9.31194336 96.47905273 10.62388672 96.45810547 11.97558594 96.43652344 C16.84331344 96.3641203 21.71099335 96.31819887 26.57910156 96.28027344 C28.68595382 96.26015874 30.79275025 96.23286333 32.89941406 96.19824219 C35.92787447 96.14971832 38.95559678 96.12702984 41.984375 96.109375 C43.39707672 96.07840729 43.39707672 96.07840729 44.83831787 96.04681396 C51.37832075 96.04457019 51.37832075 96.04457019 54.59277344 98.39941406 C56.1095314 100.66349899 56.54219507 101.79951563 56.5 104.5 C56.51546875 105.49 56.51546875 105.49 56.53125 106.5 C55.7558285 109.4192339 54.31132479 110.59362068 52 112.5 C49.41992188 113.00793457 49.41992188 113.00793457 46.46875 113.01757812 C45.36080078 113.03018677 44.25285156 113.04279541 43.11132812 113.05578613 C41.91958984 113.04768921 40.72785156 113.03959229 39.5 113.03125 C37.65825195 113.03699036 37.65825195 113.03699036 35.77929688 113.04284668 C33.18358541 113.04556842 30.58784664 113.03818911 27.9921875 113.02148438 C24.01500401 113.00008075 20.03962718 113.02127963 16.0625 113.046875 C13.54166267 113.04423177 11.02082647 113.03910691 8.5 113.03125 C6.71239258 113.04339539 6.71239258 113.04339539 4.88867188 113.05578613 C3.78072266 113.04317749 2.67277344 113.03056885 1.53125 113.01757812 C0.55736328 113.01439575 -0.41652344 113.01121338 -1.41992188 113.00793457 C-4 112.5 -4 112.5 -6.31335449 111.08874512 C-8.92868706 107.07460617 -8.55750929 103.25649733 -8.51757812 98.5625 C-8.5245874 97.55396973 -8.53159668 96.54543945 -8.53881836 95.50634766 C-8.55643218 92.17061886 -8.5447631 88.83573752 -8.53125 85.5 C-8.53394393 83.18359209 -8.53782551 80.86718528 -8.54284668 78.55078125 C-8.54874634 73.69520302 -8.54016338 68.83991904 -8.52148438 63.984375 C-8.49869496 57.75635354 -8.51181548 51.52902155 -8.53577423 45.30102539 C-8.55021932 40.51752515 -8.54563205 35.73418873 -8.53526306 30.95068359 C-8.53259223 28.65413329 -8.535878 26.35756817 -8.54518127 24.06103516 C-8.55532527 20.8527886 -8.53987483 17.64566294 -8.51757812 14.4375 C-8.52567505 13.48568848 -8.53377197 12.53387695 -8.54211426 11.55322266 C-8.45920542 5.12304991 -8.45920542 5.12304991 -6.09265137 1.91210938 C-3.8323576 0.38687585 -2.7019348 -0.04221773 0 0 Z " fill="#000000" transform="translate(416,359.5)"/>
<path d="M0 0 C3.12578143 1.6720747 5.39281175 3.7856235 7 7 C7.51512617 11.09157355 7.94367269 15.23589546 5.953125 18.95703125 C3.55501226 21.85592636 1.60351712 23.79811835 -2.171875 24.2734375 C-9.98876369 24.58137554 -9.98876369 24.58137554 -13.5625 21.625 C-17.3057723 17.59378368 -17.39037018 14.90519941 -17.359375 9.55078125 C-16.78039966 5.44131496 -15.00085071 3.78650423 -12 1 C-8.27533151 -0.86233425 -4.05504687 -0.57130829 0 0 Z " fill="#000000" transform="translate(97,344)"/>
<path d="M0 0 C3.12578143 1.6720747 5.39281175 3.7856235 7 7 C7.51512617 11.09157355 7.94367269 15.23589546 5.953125 18.95703125 C3.55501226 21.85592636 1.60351712 23.79811835 -2.171875 24.2734375 C-9.98876369 24.58137554 -9.98876369 24.58137554 -13.5625 21.625 C-17.3057723 17.59378368 -17.39037018 14.90519941 -17.359375 9.55078125 C-16.78039966 5.44131496 -15.00085071 3.78650423 -12 1 C-8.27533151 -0.86233425 -4.05504687 -0.57130829 0 0 Z " fill="#000000" transform="translate(97,264)"/>
<path d="M0 0 C3.12578143 1.6720747 5.39281175 3.7856235 7 7 C7.51512617 11.09157355 7.94367269 15.23589546 5.953125 18.95703125 C3.55501226 21.85592636 1.60351712 23.79811835 -2.171875 24.2734375 C-9.98876369 24.58137554 -9.98876369 24.58137554 -13.5625 21.625 C-17.3057723 17.59378368 -17.39037018 14.90519941 -17.359375 9.55078125 C-16.78039966 5.44131496 -15.00085071 3.78650423 -12 1 C-8.27533151 -0.86233425 -4.05504687 -0.57130829 0 0 Z " fill="#000000" transform="translate(97,184)"/>
</svg>
