<?xml version="1.0" encoding="UTF-8" standalone="no"?>
<!DOCTYPE svg PUBLIC "-//W3C//DTD SVG 1.1//EN" "http://www.w3.org/Graphics/SVG/1.1/DTD/svg11.dtd">
<svg width="100%" height="100%" viewBox="0 0 589 589" version="1.1" xmlns="http://www.w3.org/2000/svg" xmlns:xlink="http://www.w3.org/1999/xlink" xml:space="preserve" xmlns:serif="http://www.serif.com/" style="fill-rule:evenodd;clip-rule:evenodd;stroke-linejoin:round;stroke-miterlimit:2;">
    <g>
        <path d="M359.036,537.786C359.807,537.828 360.587,537.901 361.378,537.901L539.578,537.901C560.418,537.901 577.378,520.942 577.378,500.101L577.378,87.001C577.378,66.163 560.418,49.201 539.578,49.201L361.378,49.201C360.592,49.201 359.807,49.27 359.036,49.315L359.036,0L11.222,46.419L11.222,540.981L359.036,588.6L359.036,537.786ZM359.036,71.033C359.807,70.92 360.576,70.801 361.378,70.801L539.578,70.801C548.511,70.801 555.777,78.068 555.777,87.001L555.777,500.101C555.777,509.035 548.51,516.301 539.578,516.301L361.378,516.301C360.581,516.301 359.807,516.174 359.036,516.059L359.036,71.033Z" style="fill-rule:nonzero;"/>
        <g transform="matrix(1,0,0,1,9.42971,134.292)">
            <g transform="matrix(144,0,0,144,39.5582,225.711)">
                <path d="M0.498,-0.523C0.48,-0.651 0.368,-0.707 0.26,-0.707C0.179,-0.707 0.095,-0.675 0.048,-0.614C0.018,-0.575 0.006,-0.528 0.01,-0.481L0.01,-0.482C0.021,-0.336 0.149,-0.312 0.258,-0.301C0.328,-0.294 0.4,-0.285 0.412,-0.232C0.414,-0.223 0.415,-0.215 0.415,-0.208C0.415,-0.136 0.333,-0.094 0.258,-0.094C0.193,-0.094 0.114,-0.128 0.107,-0.193L0.107,-0.189L0.106,-0.204L0.004,-0.202L0.005,-0.183C0.018,-0.058 0.149,0.006 0.257,0.006C0.383,0.006 0.517,-0.072 0.517,-0.207C0.517,-0.221 0.515,-0.238 0.512,-0.253C0.485,-0.365 0.366,-0.39 0.27,-0.402C0.195,-0.409 0.116,-0.418 0.111,-0.49C0.109,-0.514 0.114,-0.537 0.128,-0.555C0.156,-0.591 0.208,-0.607 0.255,-0.608C0.316,-0.609 0.384,-0.582 0.398,-0.519L0.498,-0.523Z" style="fill:rgb(242,242,242);fill-rule:nonzero;"/>
            </g>
            <g transform="matrix(144,0,0,144,119.334,225.711)">
                <path d="M0.616,-0.35C0.616,-0.294 0.599,-0.236 0.568,-0.194L0.449,-0.302L0.309,-0.302L0.503,-0.129C0.396,-0.065 0.268,-0.081 0.181,-0.168C0.136,-0.214 0.106,-0.279 0.106,-0.35C0.106,-0.421 0.136,-0.485 0.181,-0.531C0.228,-0.578 0.292,-0.607 0.361,-0.607C0.431,-0.607 0.495,-0.578 0.541,-0.531C0.586,-0.485 0.616,-0.421 0.616,-0.35ZM0.758,-0.022L0.642,-0.131C0.689,-0.192 0.718,-0.267 0.718,-0.35C0.718,-0.449 0.677,-0.538 0.614,-0.603C0.549,-0.668 0.46,-0.709 0.361,-0.709C0.263,-0.709 0.173,-0.668 0.109,-0.603C0.046,-0.538 0.005,-0.449 0.005,-0.35C0.005,-0.251 0.048,-0.164 0.109,-0.097C0.219,0.025 0.426,0.044 0.582,-0.059L0.648,0L0.758,0L0.758,-0.022Z" style="fill:rgb(242,242,242);fill-rule:nonzero;"/>
            </g>
            <g transform="matrix(144,0,0,144,229.638,225.711)">
                <path d="M0.114,-0.699L0.013,-0.699L0.013,0L0.443,0L0.443,-0.101L0.114,-0.101L0.114,-0.699Z" style="fill:rgb(242,242,242);fill-rule:nonzero;"/>
            </g>
        </g>
        <path d="M447.768,392.281C489.681,392.281 522.482,377.304 522.482,358.188L522.482,336.677C522.482,333.618 521.596,330.512 519.813,327.47L519.74,327.348C521.48,324.422 522.482,321.342 522.482,318.13L522.482,296.62C522.482,293.561 521.596,290.455 519.813,287.404L519.582,287.016C521.428,284.002 522.482,280.828 522.482,277.506L522.482,255.998C522.482,253.087 521.675,250.123 520.067,247.191L519.882,246.851C520.357,245.543 520.689,244.204 520.689,242.786C520.689,225.402 483.121,216.018 447.768,216.018C412.446,216.018 374.889,225.402 374.889,242.786C374.889,244.204 375.221,245.549 375.701,246.857L375.512,247.197C373.898,250.129 373.097,253.093 373.097,256.004L373.097,277.512C373.097,280.824 374.141,284.003 375.987,287.009L375.744,287.421C373.983,290.477 373.098,293.573 373.098,296.631L373.098,318.136C373.098,321.342 374.083,324.416 375.829,327.343L375.744,327.481C373.983,330.529 373.098,333.634 373.098,336.677L373.098,358.193C373.096,377.304 405.896,392.281 447.768,392.281ZM381.09,259.601C393.071,269.757 420.862,275.018 447.768,275.018C474.715,275.018 502.485,269.752 514.482,259.595L514.482,277.501C514.482,289.841 487.102,303.592 447.768,303.592C408.47,303.592 381.09,289.841 381.09,277.501L381.09,259.601ZM381.09,297.897C393.356,309.124 418.584,316.295 447.768,316.295C476.993,316.295 502.221,309.123 514.482,297.886L514.482,318.13C514.482,330.47 487.102,344.223 447.768,344.223C408.47,344.223 381.09,330.47 381.09,318.13L381.09,297.897ZM381.09,337.954C393.356,349.186 418.584,356.358 447.768,356.358C476.993,356.358 502.221,349.186 514.482,337.948L514.482,358.193C514.482,370.533 487.102,384.281 447.768,384.281C408.47,384.281 381.09,370.533 381.09,358.193L381.09,337.954Z" style="fill-rule:nonzero;"/>
    </g>
</svg>
